<svg version="1.1" viewBox="0 0 294 42" xmlns="http://www.w3.org/2000/svg" id="admataz-svg"><g class="letter"><rect x="0" y="18" height="5" width="6" fill="#333" data-x="0" data-y="3" class="svgbit"></rect><rect x="0" y="24" height="5" width="6" fill="#333" data-x="0" data-y="4" class="svgbit"></rect><rect x="0" y="30" height="5" width="6" fill="#333" data-x="0" data-y="5" class="svgbit"></rect><rect x="6" y="12" height="5" width="6" fill="#333" data-x="1" data-y="2" class="svgbit"></rect><rect x="6" y="18" height="5" width="6" fill="#333" data-x="1" data-y="3" class="svgbit"></rect><rect x="6" y="24" height="5" width="6" fill="#333" data-x="1" data-y="4" class="svgbit"></rect><rect x="6" y="30" height="5" width="6" fill="#333" data-x="1" data-y="5" class="svgbit"></rect><rect x="6" y="36" height="5" width="6" fill="#333" data-x="1" data-y="6" class="svgbit"></rect><rect x="12" y="12" height="5" width="6" fill="#333" data-x="2" data-y="2" class="svgbit"></rect><rect x="12" y="36" height="5" width="6" fill="#333" data-x="2" data-y="6" class="svgbit"></rect><rect x="18" y="12" height="5" width="6" fill="#333" data-x="3" data-y="2" class="svgbit"></rect><rect x="18" y="30" height="5" width="6" fill="#333" data-x="3" data-y="5" class="svgbit"></rect><rect x="24" y="12" height="5" width="6" fill="#333" data-x="4" data-y="2" class="svgbit"></rect><rect x="24" y="18" height="5" width="6" fill="#333" data-x="4" data-y="3" class="svgbit"></rect><rect x="24" y="24" height="5" width="6" fill="#333" data-x="4" data-y="4" class="svgbit"></rect><rect x="24" y="30" height="5" width="6" fill="#333" data-x="4" data-y="5" class="svgbit"></rect><rect x="24" y="36" height="5" width="6" fill="#333" data-x="4" data-y="6" class="svgbit"></rect><rect x="30" y="12" height="5" width="6" fill="#333" data-x="5" data-y="2" class="svgbit"></rect><rect x="30" y="18" height="5" width="6" fill="#333" data-x="5" data-y="3" class="svgbit"></rect><rect x="30" y="24" height="5" width="6" fill="#333" data-x="5" data-y="4" class="svgbit"></rect><rect x="30" y="30" height="5" width="6" fill="#333" data-x="5" data-y="5" class="svgbit"></rect><rect x="30" y="36" height="5" width="6" fill="#333" data-x="5" data-y="6" class="svgbit"></rect></g><g class="letter"><rect x="42" y="18" height="5" width="6" fill="#333" data-x="7" data-y="3" class="svgbit"></rect><rect x="42" y="24" height="5" width="6" fill="#333" data-x="7" data-y="4" class="svgbit"></rect><rect x="42" y="30" height="5" width="6" fill="#333" data-x="7" data-y="5" class="svgbit"></rect><rect x="48" y="18" height="5" width="6" fill="#333" data-x="8" data-y="3" class="svgbit"></rect><rect x="48" y="24" height="5" width="6" fill="#333" data-x="8" data-y="4" class="svgbit"></rect><rect x="48" y="30" height="5" width="6" fill="#333" data-x="8" data-y="5" class="svgbit"></rect><rect x="48" y="36" height="5" width="6" fill="#333" data-x="8" data-y="6" class="svgbit"></rect><rect x="54" y="12" height="5" width="6" fill="#333" data-x="9" data-y="2" class="svgbit"></rect><rect x="54" y="36" height="5" width="6" fill="#333" data-x="9" data-y="6" class="svgbit"></rect><rect x="60" y="12" height="5" width="6" fill="#333" data-x="10" data-y="2" class="svgbit"></rect><rect x="60" y="36" height="5" width="6" fill="#333" data-x="10" data-y="6" class="svgbit"></rect><rect x="66" y="0" height="5" width="6" fill="#333" data-x="11" data-y="0" class="svgbit"></rect><rect x="66" y="6" height="5" width="6" fill="#333" data-x="11" data-y="1" class="svgbit"></rect><rect x="66" y="12" height="5" width="6" fill="#333" data-x="11" data-y="2" class="svgbit"></rect><rect x="66" y="18" height="5" width="6" fill="#333" data-x="11" data-y="3" class="svgbit"></rect><rect x="66" y="24" height="5" width="6" fill="#333" data-x="11" data-y="4" class="svgbit"></rect><rect x="66" y="30" height="5" width="6" fill="#333" data-x="11" data-y="5" class="svgbit"></rect><rect x="66" y="36" height="5" width="6" fill="#333" data-x="11" data-y="6" class="svgbit"></rect><rect x="72" y="0" height="5" width="6" fill="#333" data-x="12" data-y="0" class="svgbit"></rect><rect x="72" y="6" height="5" width="6" fill="#333" data-x="12" data-y="1" class="svgbit"></rect><rect x="72" y="12" height="5" width="6" fill="#333" data-x="12" data-y="2" class="svgbit"></rect><rect x="72" y="18" height="5" width="6" fill="#333" data-x="12" data-y="3" class="svgbit"></rect><rect x="72" y="24" height="5" width="6" fill="#333" data-x="12" data-y="4" class="svgbit"></rect><rect x="72" y="30" height="5" width="6" fill="#333" data-x="12" data-y="5" class="svgbit"></rect><rect x="72" y="36" height="5" width="6" fill="#333" data-x="12" data-y="6" class="svgbit"></rect></g><g class="letter"><rect x="84" y="12" height="5" width="6" fill="#333" data-x="14" data-y="2" class="svgbit"></rect><rect x="84" y="18" height="5" width="6" fill="#333" data-x="14" data-y="3" class="svgbit"></rect><rect x="84" y="24" height="5" width="6" fill="#333" data-x="14" data-y="4" class="svgbit"></rect><rect x="84" y="30" height="5" width="6" fill="#333" data-x="14" data-y="5" class="svgbit"></rect><rect x="84" y="36" height="5" width="6" fill="#333" data-x="14" data-y="6" class="svgbit"></rect><rect x="90" y="12" height="5" width="6" fill="#333" data-x="15" data-y="2" class="svgbit"></rect><rect x="90" y="18" height="5" width="6" fill="#333" data-x="15" data-y="3" class="svgbit"></rect><rect x="90" y="24" height="5" width="6" fill="#333" data-x="15" data-y="4" class="svgbit"></rect><rect x="90" y="30" height="5" width="6" fill="#333" data-x="15" data-y="5" class="svgbit"></rect><rect x="90" y="36" height="5" width="6" fill="#333" data-x="15" data-y="6" class="svgbit"></rect><rect x="96" y="12" height="5" width="6" fill="#333" data-x="16" data-y="2" class="svgbit"></rect><rect x="102" y="12" height="5" width="6" fill="#333" data-x="17" data-y="2" class="svgbit"></rect><rect x="102" y="18" height="5" width="6" fill="#333" data-x="17" data-y="3" class="svgbit"></rect><rect x="102" y="24" height="5" width="6" fill="#333" data-x="17" data-y="4" class="svgbit"></rect><rect x="102" y="30" height="5" width="6" fill="#333" data-x="17" data-y="5" class="svgbit"></rect><rect x="102" y="36" height="5" width="6" fill="#333" data-x="17" data-y="6" class="svgbit"></rect><rect x="108" y="12" height="5" width="6" fill="#333" data-x="18" data-y="2" class="svgbit"></rect><rect x="114" y="12" height="5" width="6" fill="#333" data-x="19" data-y="2" class="svgbit"></rect><rect x="114" y="18" height="5" width="6" fill="#333" data-x="19" data-y="3" class="svgbit"></rect><rect x="114" y="24" height="5" width="6" fill="#333" data-x="19" data-y="4" class="svgbit"></rect><rect x="114" y="30" height="5" width="6" fill="#333" data-x="19" data-y="5" class="svgbit"></rect><rect x="114" y="36" height="5" width="6" fill="#333" data-x="19" data-y="6" class="svgbit"></rect><rect x="120" y="18" height="5" width="6" fill="#333" data-x="20" data-y="3" class="svgbit"></rect><rect x="120" y="24" height="5" width="6" fill="#333" data-x="20" data-y="4" class="svgbit"></rect><rect x="120" y="30" height="5" width="6" fill="#333" data-x="20" data-y="5" class="svgbit"></rect><rect x="120" y="36" height="5" width="6" fill="#333" data-x="20" data-y="6" class="svgbit"></rect></g><g class="letter"><rect x="132" y="18" height="5" width="6" fill="#333" data-x="22" data-y="3" class="svgbit"></rect><rect x="132" y="24" height="5" width="6" fill="#333" data-x="22" data-y="4" class="svgbit"></rect><rect x="132" y="30" height="5" width="6" fill="#333" data-x="22" data-y="5" class="svgbit"></rect><rect x="138" y="12" height="5" width="6" fill="#333" data-x="23" data-y="2" class="svgbit"></rect><rect x="138" y="18" height="5" width="6" fill="#333" data-x="23" data-y="3" class="svgbit"></rect><rect x="138" y="24" height="5" width="6" fill="#333" data-x="23" data-y="4" class="svgbit"></rect><rect x="138" y="30" height="5" width="6" fill="#333" data-x="23" data-y="5" class="svgbit"></rect><rect x="138" y="36" height="5" width="6" fill="#333" data-x="23" data-y="6" class="svgbit"></rect><rect x="144" y="12" height="5" width="6" fill="#333" data-x="24" data-y="2" class="svgbit"></rect><rect x="144" y="36" height="5" width="6" fill="#333" data-x="24" data-y="6" class="svgbit"></rect><rect x="150" y="12" height="5" width="6" fill="#333" data-x="25" data-y="2" class="svgbit"></rect><rect x="150" y="30" height="5" width="6" fill="#333" data-x="25" data-y="5" class="svgbit"></rect><rect x="156" y="12" height="5" width="6" fill="#333" data-x="26" data-y="2" class="svgbit"></rect><rect x="156" y="18" height="5" width="6" fill="#333" data-x="26" data-y="3" class="svgbit"></rect><rect x="156" y="24" height="5" width="6" fill="#333" data-x="26" data-y="4" class="svgbit"></rect><rect x="156" y="30" height="5" width="6" fill="#333" data-x="26" data-y="5" class="svgbit"></rect><rect x="156" y="36" height="5" width="6" fill="#333" data-x="26" data-y="6" class="svgbit"></rect><rect x="162" y="12" height="5" width="6" fill="#333" data-x="27" data-y="2" class="svgbit"></rect><rect x="162" y="18" height="5" width="6" fill="#333" data-x="27" data-y="3" class="svgbit"></rect><rect x="162" y="24" height="5" width="6" fill="#333" data-x="27" data-y="4" class="svgbit"></rect><rect x="162" y="30" height="5" width="6" fill="#333" data-x="27" data-y="5" class="svgbit"></rect><rect x="162" y="36" height="5" width="6" fill="#333" data-x="27" data-y="6" class="svgbit"></rect></g><g class="letter"><rect x="174" y="12" height="5" width="6" fill="#333" data-x="29" data-y="2" class="svgbit"></rect><rect x="180" y="12" height="5" width="6" fill="#333" data-x="30" data-y="2" class="svgbit"></rect><rect x="186" y="0" height="5" width="6" fill="#333" data-x="31" data-y="0" class="svgbit"></rect><rect x="186" y="6" height="5" width="6" fill="#333" data-x="31" data-y="1" class="svgbit"></rect><rect x="186" y="12" height="5" width="6" fill="#333" data-x="31" data-y="2" class="svgbit"></rect><rect x="186" y="18" height="5" width="6" fill="#333" data-x="31" data-y="3" class="svgbit"></rect><rect x="186" y="24" height="5" width="6" fill="#333" data-x="31" data-y="4" class="svgbit"></rect><rect x="186" y="30" height="5" width="6" fill="#333" data-x="31" data-y="5" class="svgbit"></rect><rect x="186" y="36" height="5" width="6" fill="#333" data-x="31" data-y="6" class="svgbit"></rect><rect x="192" y="0" height="5" width="6" fill="#333" data-x="32" data-y="0" class="svgbit"></rect><rect x="192" y="6" height="5" width="6" fill="#333" data-x="32" data-y="1" class="svgbit"></rect><rect x="192" y="12" height="5" width="6" fill="#333" data-x="32" data-y="2" class="svgbit"></rect><rect x="192" y="18" height="5" width="6" fill="#333" data-x="32" data-y="3" class="svgbit"></rect><rect x="192" y="24" height="5" width="6" fill="#333" data-x="32" data-y="4" class="svgbit"></rect><rect x="192" y="30" height="5" width="6" fill="#333" data-x="32" data-y="5" class="svgbit"></rect><rect x="192" y="36" height="5" width="6" fill="#333" data-x="32" data-y="6" class="svgbit"></rect><rect x="198" y="12" height="5" width="6" fill="#333" data-x="33" data-y="2" class="svgbit"></rect><rect x="204" y="12" height="5" width="6" fill="#333" data-x="34" data-y="2" class="svgbit"></rect></g><g class="letter"><rect x="216" y="18" height="5" width="6" fill="#333" data-x="36" data-y="3" class="svgbit"></rect><rect x="216" y="24" height="5" width="6" fill="#333" data-x="36" data-y="4" class="svgbit"></rect><rect x="216" y="30" height="5" width="6" fill="#333" data-x="36" data-y="5" class="svgbit"></rect><rect x="222" y="12" height="5" width="6" fill="#333" data-x="37" data-y="2" class="svgbit"></rect><rect x="222" y="18" height="5" width="6" fill="#333" data-x="37" data-y="3" class="svgbit"></rect><rect x="222" y="24" height="5" width="6" fill="#333" data-x="37" data-y="4" class="svgbit"></rect><rect x="222" y="30" height="5" width="6" fill="#333" data-x="37" data-y="5" class="svgbit"></rect><rect x="222" y="36" height="5" width="6" fill="#333" data-x="37" data-y="6" class="svgbit"></rect><rect x="228" y="12" height="5" width="6" fill="#333" data-x="38" data-y="2" class="svgbit"></rect><rect x="228" y="36" height="5" width="6" fill="#333" data-x="38" data-y="6" class="svgbit"></rect><rect x="234" y="12" height="5" width="6" fill="#333" data-x="39" data-y="2" class="svgbit"></rect><rect x="234" y="30" height="5" width="6" fill="#333" data-x="39" data-y="5" class="svgbit"></rect><rect x="240" y="12" height="5" width="6" fill="#333" data-x="40" data-y="2" class="svgbit"></rect><rect x="240" y="18" height="5" width="6" fill="#333" data-x="40" data-y="3" class="svgbit"></rect><rect x="240" y="24" height="5" width="6" fill="#333" data-x="40" data-y="4" class="svgbit"></rect><rect x="240" y="30" height="5" width="6" fill="#333" data-x="40" data-y="5" class="svgbit"></rect><rect x="240" y="36" height="5" width="6" fill="#333" data-x="40" data-y="6" class="svgbit"></rect><rect x="246" y="12" height="5" width="6" fill="#333" data-x="41" data-y="2" class="svgbit"></rect><rect x="246" y="18" height="5" width="6" fill="#333" data-x="41" data-y="3" class="svgbit"></rect><rect x="246" y="24" height="5" width="6" fill="#333" data-x="41" data-y="4" class="svgbit"></rect><rect x="246" y="30" height="5" width="6" fill="#333" data-x="41" data-y="5" class="svgbit"></rect><rect x="246" y="36" height="5" width="6" fill="#333" data-x="41" data-y="6" class="svgbit"></rect></g><g class="letter"><rect x="258" y="12" height="5" width="6" fill="#333" data-x="43" data-y="2" class="svgbit"></rect><rect x="258" y="36" height="5" width="6" fill="#333" data-x="43" data-y="6" class="svgbit"></rect><rect x="264" y="12" height="5" width="6" fill="#333" data-x="44" data-y="2" class="svgbit"></rect><rect x="264" y="30" height="5" width="6" fill="#333" data-x="44" data-y="5" class="svgbit"></rect><rect x="264" y="36" height="5" width="6" fill="#333" data-x="44" data-y="6" class="svgbit"></rect><rect x="270" y="12" height="5" width="6" fill="#333" data-x="45" data-y="2" class="svgbit"></rect><rect x="270" y="24" height="5" width="6" fill="#333" data-x="45" data-y="4" class="svgbit"></rect><rect x="270" y="30" height="5" width="6" fill="#333" data-x="45" data-y="5" class="svgbit"></rect><rect x="270" y="36" height="5" width="6" fill="#333" data-x="45" data-y="6" class="svgbit"></rect><rect x="276" y="12" height="5" width="6" fill="#333" data-x="46" data-y="2" class="svgbit"></rect><rect x="276" y="18" height="5" width="6" fill="#333" data-x="46" data-y="3" class="svgbit"></rect><rect x="276" y="24" height="5" width="6" fill="#333" data-x="46" data-y="4" class="svgbit"></rect><rect x="276" y="36" height="5" width="6" fill="#333" data-x="46" data-y="6" class="svgbit"></rect><rect x="282" y="12" height="5" width="6" fill="#333" data-x="47" data-y="2" class="svgbit"></rect><rect x="282" y="18" height="5" width="6" fill="#333" data-x="47" data-y="3" class="svgbit"></rect><rect x="282" y="36" height="5" width="6" fill="#333" data-x="47" data-y="6" class="svgbit"></rect><rect x="288" y="12" height="5" width="6" fill="#333" data-x="48" data-y="2" class="svgbit"></rect><rect x="288" y="36" height="5" width="6" fill="#333" data-x="48" data-y="6" class="svgbit"></rect></g></svg>