<?xml version="1.0" standalone="no"?> <!DOCTYPE svg PUBLIC "-//W3C//DTD SVG 1.0//EN" "http://www.w3.org/TR/2001/REC-SVG-20010904/DTD/svg10.dtd" > <svg xmlns="http://www.w3.org/2000/svg" width="100%" height="100%">
<defs >
<font id="TravelingTypewriter" horiz-adv-x="508" ><font-face
    font-family="Traveling _Typewriter"
    units-per-em="1000"
    panose-1="2 0 5 6 0 0 0 2 0 4"
    ascent="976"
    descent="-285"
    alphabetic="0" />
<missing-glyph horiz-adv-x="442" />
<glyph unicode=" " glyph-name="space" horiz-adv-x="442" />
<glyph unicode="!" glyph-name="exclam" horiz-adv-x="199" d="M159 620Q159 600 156 580T150 537T144 492T141 441Q134 421 133 401T130 363T123 328T105 298Q92 298 87 306T81 327T78 351T70 370Q63 403 62 434T59 495T52 555T34 620Q48 633 61 637T87 655Q94
655 103 655T123 651T142 640T159 620ZM159 191Q166 177 166 164T164 140T154 119T141 102Q127 88 105 88T70 102Q43 129 34 155T52 209Q65 216 81 216T112 214T139 204T159 191Z" />
<glyph unicode="&quot;" glyph-name="quotedbl" horiz-adv-x="388" d="M361 673Q355 647 352 616T345 554T338 491T328 435Q328 423 318 421T294 419V571Q300 571 301 574T301 581T297 592T294 604Q281 611 274 620T264 640T261 664T260 690Q273 702 287 712T328
723Q334 723 340 718T350 705T358 688T361 673ZM142 690Q129 658 122 624T110 554T101 485T90 419H74Q68 444 67 469T65 520T64 571T57 622Q44 634 36 657T40 706Q53 725 68 727T97 723T124 707T142 690ZM277 571V588Q283 588 284 588T284 586T280 581T277 571Z"
/>
<glyph unicode="#" glyph-name="numbersign" horiz-adv-x="482" d="M473 339Q470 339 469 336V331Q468 330 465 330V324Q455 324 444 314Q430 305 419 308V309Q417 310 412 310T398 311Q384 311 381 317Q375 316 374 322Q374 325 372 325Q368 322 357 319T328
302Q327 301 327 285H325L322 258Q318 260 318 255T316 249Q321 244 326 238T341 233Q344 231 347 228T356 227Q356 226 357 225Q361 227 367 228T383 232H398Q396 229 401 229Q404 227 407 225T415 220Q415 215 418 210T422 202Q420 202 416 199V196Q411 196 407
194T405 188Q399 179 381 179H362Q349 179 344 175Q336 173 329 172T313 169Q294 165 291 151Q290 149 290 143Q290 138 292 132T294 121Q294 116 290 111T287 97Q282 96 281 87T275 77Q275 76 272 72T270 64H267Q266 60 266 54T263 40Q256 36 256 24Q257 6 256
5Q252 3 249 -6T241 -19V-24Q240 -26 237 -30T236 -40Q231 -41 229 -49T222 -57H221Q219 -57 218 -56V-61Q216 -61 214 -66T201 -74Q199 -75 196 -75Q191 -75 186 -69T178 -61V-51H175V-41H178Q178 -36 178 -30T180 -16Q184 -16 184 -12V-4Q185 2 196 11Q198 18
193 26Q196 26 196 36Q197 37 199 38T206 44Q212 49 211 57Q215 56 215 63Q215 71 209 77Q210 85 222 105Q225 107 225 114T226 124Q229 122 230 126T233 132V136Q241 152 238 156Q237 157 237 160T234 169Q233 176 226 178Q226 181 220 181L217 182Q217 184 211
184H208Q206 186 203 186H198Q195 188 191 190T182 198Q180 196 180 193Q178 194 174 194Q167 194 161 188Q158 186 157 184T153 181L151 179Q150 174 144 168T138 155Q138 151 139 149Q135 149 134 146Q136 141 130 138T124 133Q124 131 129 128Q128 124 130 119T133
112Q133 110 131 108Q133 106 134 103V98Q128 96 128 87H126L123 41Q121 41 119 39V35Q112 31 112 22T110 5Q107 0 104 -4T103 -14Q94 -23 91 -37Q92 -39 95 -42T97 -51Q89 -54 79 -68Q68 -84 57 -84Q54 -84 50 -82V-86Q52 -82 46 -79T41 -71H38V-57Q39 -49 33
-47V-29H36L42 1Q42 1 53 14Q61 24 58 34Q62 34 62 39V46Q62 45 64 45H65Q67 45 68 49T71 53V59Q75 61 74 68T75 77Q80 77 80 79Q80 84 79 84H76Q80 86 84 93T90 103L86 106H88Q89 113 91 130Q94 145 94 153Q94 164 89 176Q84 178 80 180T75 188Q74 187 74 186Q32
195 18 183Q18 190 18 200T16 224Q47 235 84 232Q84 229 87 229Q99 232 111 242Q117 242 127 250Q126 250 134 252V260H135Q137 262 137 275Q147 286 147 290Q150 293 143 299T131 311H102Q87 312 78 321Q77 323 76 327Q75 330 74 334T70 344Q71 346 76 350T81
358Q90 366 124 369V370Q131 365 138 366Q146 368 153 370T163 375Q168 380 170 387Q174 387 180 406Q183 404 185 408T189 413Q189 415 187 420T185 427Q185 433 189 433V445H190Q190 445 192 446Q187 450 189 464Q189 478 185 482Q185 495 183 495H181V510Q190
513 190 528V554Q192 561 201 565T207 575Q207 580 205 586T203 594Q203 598 208 601Q214 614 230 628L232 634L281 630Q280 625 282 623Q274 614 276 596Q278 572 275 566Q270 563 268 552T261 539Q259 537 259 529Q259 529 257 525V519Q255 516 252 513T251 505Q250
503 245 498T241 486Q237 486 237 482V478Q233 474 233 466Q224 460 219 446Q214 446 207 449Q207 449 205 439Q215 430 214 413Q213 413 211 409V405Q208 403 208 400V393Q205 393 205 389V384Q204 384 204 384T202 383Q207 378 211 373T222 369V368Q224 367 240
367Q240 364 241 363Q257 369 260 369V367Q262 367 265 367T274 366Q275 363 277 363L279 365Q281 367 283 367Q286 372 294 377T306 388Q309 392 312 399T321 417Q326 422 326 433Q324 449 326 451Q329 451 329 452L330 457Q335 461 334 485Q331 485 328 492Q325
507 335 510L337 540Q341 538 341 545V548L343 551Q343 552 343 552T342 554V555Q340 561 340 564Q340 577 353 578Q353 580 356 584T360 591Q360 594 359 595Q360 598 367 601T373 612Q378 610 379 613T382 618V620Q385 620 387 622V626Q394 626 394 627V629H405Q405
625 406 625L411 629V618Q407 618 407 613Q409 608 415 602T421 589Q421 586 419 582H418Q417 581 417 564Q415 564 409 561T404 552Q402 549 399 546T397 538Q394 536 395 532V524Q397 523 397 515V503Q393 502 392 494T386 483Q388 475 379 469Q371 464 374 456V452Q370
452 369 449V445Q369 443 369 442T368 440V436Q368 436 364 434V429H362L358 403Q354 404 352 401L350 397Q350 385 360 377T382 363L384 361Q392 363 400 366T417 367V366Q422 365 427 364Q434 363 455 358Q455 354 461 354Q464 355 467 351T473 345V339ZM288
285Q290 290 286 299Q287 304 282 309T275 320Q274 318 274 317T273 314Q269 314 263 311T254 308Q250 308 248 311Q237 313 231 316T222 332H206Q206 326 203 326Q200 320 193 316Q180 309 178 308Q178 300 174 289Q173 281 176 266Q177 262 173 254Q171 244 174
232T178 212Q180 210 187 210T196 206H200L202 204Q204 203 206 203T211 202Q219 202 221 206Q224 214 240 229Q244 230 254 240Q259 242 263 249T272 258Q272 266 279 273T288 285Z" />
<glyph unicode="$" glyph-name="dollar" horiz-adv-x="528" d="M300 706Q310 694 313 683T317 660T314 639T312 617Q326 614 340 613T367 607T390 592T408 564Q415 572 419 583T428 603T436 620T449 627Q464 619 469 611T474 595T472 580T469 564Q454 533 452
500T449 421H408Q392 436 390 451T387 479T385 504T366 523Q366 529 361 538T349 555T333 571T316 582Q305 522 300 458T292 335Q336 331 377 319T449 277Q479 246 492 203T489 113Q489 81 464 53T408 10Q384 -5 354 -12T293 -20Q293 -37 297 -50Q292 -53 286 -58T274
-68T262 -76T249 -77Q244 -80 238 -78T227 -72T219 -61T218 -47Q226 -42 229 -32T228 -11Q201 -3 182 10L99 71Q84 63 78 47T68 15T58 -9T37 -11Q22 -11 20 -9T17 10Q32 33 37 62T45 123T48 183T58 236Q73 236 78 226T86 203T89 176T99 154Q130 107 161 77T223
30H229Q232 41 234 51T231 71L242 107Q234 121 233 132T231 154T231 174T226 193Q235 198 237 202T239 208T238 213T242 218L231 243Q238 246 243 242Q246 240 247 238Q252 240 252 241T251 245T250 249T252 255L241 248Q237 257 241 264T241 280Q245 287 247 297Q219
303 193 311T145 334T105 370T78 421Q78 452 82 482T99 539T131 588T182 627Q191 627 204 630T235 635Q232 638 229 640T224 647Q227 654 227 660T228 672T231 685T240 703Q247 701 254 703T268 708T283 711T300 706ZM386 51Q449 112 449 175Q433 205 416 233T366
277Q348 280 329 283T290 289Q288 273 285 257T284 226Q282 208 284 191T288 158T290 124T284 86Q291 73 292 58T293 25Q319 23 343 27T386 51ZM182 564Q166 556 158 545T143 521T132 492T119 462Q119 431 137 401T202 338H243Q242 344 242 349T243 360Q238 368
237 371T230 383Q240 395 240 406T238 427T235 448T244 471Q239 480 240 492T237 514Q235 531 238 550T243 590Q228 586 213 579T182 564Z" />
<glyph unicode="&amp;" glyph-name="ampersand" horiz-adv-x="554" d="M322 541Q329 527 329 508T327 467T317 426T303 393Q276 379 248 365T192 336Q199 315 209 301T229 274T250 251T267 225Q280 218 288 206T305 181T326 160T360 151Q367 172 374 195T389 241T409
284T434 319Q455 325 469 323T496 314T519 298T545 281Q538 274 537 264T534 244T527 224T508 207Q501 207 491 205T471 202T451 206T434 225Q427 218 426 211T424 197T423 183T415 169Q401 155 390 142T379 114Q392 86 409 76T443 63T477 56T508 39Q508 12 497
-2T471 -16Q429 -2 400 23T341 77Q341 63 339 58T322 39Q308 39 298 34T279 23T263 16T248 20Q227 -1 207 -3T167 2T131 20T99 39Q71 53 56 73T34 118T26 170T25 225Q54 253 81 283T137 355Q130 369 115 380T86 404T64 431T63 467Q63 481 63 498T67 532T78 566T99
597Q113 597 124 603T145 616T167 629T192 635Q213 635 233 628T271 609T301 580T322 541ZM267 523Q260 537 250 544T230 557T209 567T192 578Q164 564 148 551T118 523Q111 502 113 484T123 449T139 413T155 374Q183 374 208 388T248 429Q255 443 261 454T271
475T275 497T267 523ZM248 169Q234 183 223 200T202 234T180 269T155 300Q155 286 144 281T118 262Q104 248 99 223T80 169Q80 155 83 139T94 109T112 86T137 77Q144 84 148 82T155 74T163 64T174 58H192Q206 51 220 53T248 63T275 79T303 95Q310 102 308 112T297
132T275 152T248 169Z" />
<glyph unicode="&apos;" glyph-name="quotesingle" horiz-adv-x="138" d="M91 623L105 622L92 503V497Q81 488 64 489T37 491Q35 517 36 541T39 589T40 636T32 686Q43 691 61 691T101 692Q111 692 114 690T117 685T115 679T113 674Q107 669 107 663T108 651T106
637T91 623Z" />
<glyph unicode="(" glyph-name="parenleft" horiz-adv-x="265" d="M232 679Q243 679 243 669T232 648Q208 636 192 617T153 586Q118 550 100 502T78 402T81 296T106 196Q112 178 121 156T145 114T181 77T232 55V24Q232 1 212 -1T168 9Q156 26 140 44T108 80T79
120T60 164Q42 188 35 214T25 266T21 318T13 367Q13 413 26 459T63 548T118 628T184 694Q196 700 202 700T213 698T222 690T232 679Z" />
<glyph unicode=")" glyph-name="parenright" horiz-adv-x="247" d="M173 573Q173 555 178 543T189 518T200 494T205 464Q250 347 205 231L220 215Q197 204 193 183T189 138Q171 120 161 101T140 62T117 27T81 -2Q69 -2 63 0T52 7T44 17T34 29Q34 41 42 50T61 66T86
79T111 91Q134 126 150 170T189 262Q177 274 177 293T189 324Q189 383 170 448T126 573Q103 584 80 603T34 634Q22 646 22 656T34 666Q34 677 36 681T49 697Q66 691 81 678T110 647T140 610T173 573Z" />
<glyph unicode="*" glyph-name="asterisk" horiz-adv-x="289" d="M270 288L267 268L255 263L245 256L235 255L220 254L206 252L198 248L191 244L194 240L203 234L211 226L223 218L234 208L241 190L246 177L249 165L247 159L242 149L235 141L225 137L216 136H205L193
139L184 141L175 157L167 165L158 177L150 186L147 190L144 186L138 177L130 167L123 155L113 143L98 135L86 129L75 126L69 128L61 135L53 141L50 152L49 162V174L50 187L53 198L68 208L75 216L86 225L95 235L97 244H89L79 250L67 252L57 255L43 267L27 277L23
289L21 301L19 316L35 340L50 353L61 348L72 346L82 340L93 332L105 322V328L106 339L104 353L103 363L108 381L112 401L121 409L130 416L144 422L155 419L168 415L184 405L185 391L187 379L185 367L181 353L177 336L178 328L184 326L195 332L203 337L220 338L238
341L249 335L258 328L268 316L269 304L270 288Z" />
<glyph unicode="+" glyph-name="plus" horiz-adv-x="363" d="M205 460V367Q211 361 210 355T205 344T201 333T205 321Q240 321 274 323T344 336Q355 325 357 313T359 290Q347 278 331 277T297 276T263 279T235 274Q229 280 224 281T214 280Q209 278 205 274V181Q209
177 211 172Q215 161 205 151Q205 139 195 132T174 135Q162 147 161 163T160 198T163 236T158 274Q140 280 123 280T86 280T47 276T4 274V321Q16 332 30 332T58 327T86 319T111 321Q117 321 123 319T135 315T146 314T158 321L174 336L158 460Q158 471 165 476T181
482T197 477T205 460Z" />
<glyph unicode="," glyph-name="comma" horiz-adv-x="169" d="M139 76Q145 53 143 28T133 -22T116 -73T94 -121Q88 -127 83 -129T72 -134Q67 -136 63 -136Q52 -125 55 -114T67 -91T85 -69T94 -46Q94 -40 96 -32T99 -16T100 1T94 15Q88 9 82 8T71 7T60 7T48 0Q37
6 31 14T22 32T19 53T18 76Q29 87 40 98T63 120Q75 114 86 113T107 109T125 99T139 76Z" />
<glyph unicode="-" glyph-name="hyphen" horiz-adv-x="355" d="M136 310V322H326Q333 317 335 311T338 298T337 285T336 275Q297 270 261 270T189 268T117 263T41 251Q33 260 32 276T31 310Q31 319 34 322T41 325T51 324T60 322Q67 317 75 318T94 320T114 321T136 310Z" />
<glyph unicode="." glyph-name="period" horiz-adv-x="188" d="M170 69Q170 40 158 23T130 -10Q115 -10 104 -12T84 -15T66 -10T51 10Q36 25 26 40T31 69Q31 84 38 92T56 106T81 116T110 129Q117 121 124 117T139 107T154 93T170 69Z" />
<glyph unicode="/" glyph-name="slash" horiz-adv-x="442" d="M426 633Q431 614 426 601T412 577T396 556T388 530Q349 482 312 428T246 325Q237 305 221 287T195 248Q185 234 179 220T167 191T153 162T131 133Q131 118 125 104T110 75T93 47T80 17Q75 17 68 16T54
13T40 11T29 17Q18 17 12 31T15 56Q26 56 33 64T41 82Q41 92 47 99T60 114T74 128T80 146L106 171Q106 186 110 196T118 214T127 230T131 248Q141 248 144 250T149 255T151 260T157 262V287Q162 287 163 285T167 280L169 274Q174 274 175 275T176 279T176 284T180
287H169Q169 291 171 294T176 299T181 305T183 313Q192 317 197 326T206 344T212 362T220 376V402Q235 407 239 415T246 434T253 453T272 467Q272 476 278 485T285 505Q294 524 310 543T336 582Q341 587 341 591T341 601T338 611T336 621Q346 630 350 639T374 659Q379
654 386 653T400 651T414 647T426 633Z" />
<glyph unicode="0" glyph-name="zero" horiz-adv-x="537" d="M395 579Q432 550 454 508T490 416T507 312T512 207Q497 178 479 144T436 78T383 23T316 -8Q170 -38 82 110Q82 124 76 136T62 160T48 189T42 227Q35 271 38 317T54 410T89 499T140 579Q155 579 166
585T189 598T211 612T238 618Q283 618 324 613T395 579ZM376 540Q361 555 340 562T294 571T246 570T199 559Q184 544 167 526T136 488T111 447T101 403Q87 373 85 334T82 265Q82 243 91 218T116 168T148 117T180 70Q209 41 250 39T336 50Q373 72 399 107T441 185T465
273T473 363Q458 393 444 432T414 501L376 540Z" />
<glyph unicode="1" glyph-name="one" horiz-adv-x="559" d="M284 651Q292 659 299 659T312 657T321 646T325 631V94Q317 94 317 91T317 81T322 68T325 52H512Q519 52 526 49T537 39T541 26T532 11Q524 -4 514 -9T491 -15T468 -13T449 -10Q410 -18 375 -18T308
-18T244 -13T181 -10Q158 -10 142 -13T112 -17T86 -19T57 -10Q42 -10 37 -6T31 5T33 25T36 52Q60 68 80 67T122 60T167 49T223 52Q223 44 226 43T233 44Q237 47 243 52Q259 69 261 84T264 114Q256 160 258 210T263 310T269 410T264 507V568Q254 584 233 586T188
586T138 580T93 579T63 599T57 651H284Z" />
<glyph unicode="2" glyph-name="two" horiz-adv-x="525" d="M470 415Q462 415 462 412T462 403T467 390T470 375Q448 338 420 321T362 294T305 279T254 258Q233 258 218 252T189 236T164 217T137 199Q130 184 123 167T109 131T94 95T79 63H333Q355 63 376 60T418
56T457 54T490 63Q504 48 504 43T490 24Q482 9 472 4T451 -1T429 0T411 3Q360 11 315 9T225 4T136 -2T39 3Q25 48 34 92T59 179Q81 194 100 211T140 245T183 275T235 297Q250 304 264 314T293 331T322 341T352 336Q367 351 381 363T406 387T424 416T431 454H450Q480
454 482 442T470 415ZM450 551Q450 536 458 525T472 502T475 480T450 454Q450 468 448 480T431 492Q431 499 425 506T409 521T390 536T372 551Q343 580 302 592T215 590Q200 590 189 582T167 562T147 539T127 521T105 515T79 532Q94 561 115 580T162 612T216 633T274
649Q332 635 376 615T450 551Z" />
<glyph unicode="3" glyph-name="three" horiz-adv-x="494" d="M223 645Q242 651 264 650T308 645T353 641T395 645Q408 645 415 642T427 633T436 617T446 594Q395 555 346 515T257 422Q271 409 285 407T326 405Q365 405 401 381T463 319Q470 306 470 291T470 257T466
220T463 182Q444 169 430 154T404 122T377 90T343 61Q337 48 328 46T309 44T290 42T275 27Q249 14 221 -3T161 -33T98 -50T34 -42Q34 -37 32 -31Q29 -21 17 -7Q30 12 51 17T96 24T144 28T189 44Q221 50 252 66T311 104T360 155T395 216Q408 222 412 231T416 252T414
276T412 302Q399 315 389 327T367 348T342 364T309 370Q292 379 276 377T246 367T217 352T190 340T163 343T137 370Q137 377 142 383T156 394T174 402T189 405Q240 457 278 499T343 594Q324 588 305 589T266 591T228 592T189 577Q176 583 158 577T120 566T83 564T51
594Q51 600 51 609T55 628T66 647T86 662Q112 649 148 647T223 645Z" />
<glyph unicode="4" glyph-name="four" horiz-adv-x="462" d="M174 647Q180 622 179 600T173 556T163 512T158 465Q145 402 131 351T92 250V233H290Q290 283 288 340T274 448Q280 448 288 453T306 462T325 469T340 465V250Q346 238 355 237T373 238T391 245T406
250H439Q439 244 441 235T445 217T446 199T439 184Q421 184 406 189T378 198T356 204T340 200Q340 175 342 153T345 111T347 72T340 35Q340 23 335 14T322 0T305 -5T290 2Q278 20 278 36T282 67T285 99T274 134Q286 146 288 160T290 200Q278 206 266 207T241 207T216
203T191 200Q153 188 117 186T42 184Q30 184 20 194T9 217Q9 229 17 239T34 258T51 277T59 299Q65 318 71 334T81 365T89 397T92 432Q104 457 108 481T112 531T110 580T108 630Q98 630 102 638Q104 642 108 647Q114 653 123 658T141 665T159 663T174 647Z" />
<glyph unicode="5" glyph-name="five" horiz-adv-x="432" d="M109 613H389Q395 613 398 608T402 596T404 581T404 567Q381 555 358 558T311 566T265 575T218 567Q195 567 172 565T125 551Q125 516 127 481T140 411Q187 423 233 431T326 427Q338 427 344 422T355
411T363 400T373 395Q420 350 420 256Q402 209 371 167T300 89T210 29T109 -8Q97 -8 86 -12T63 -17T40 -15T16 7Q27 19 31 31T47 54Q65 48 79 52T107 62T132 72T155 70Q167 87 181 92T208 98T232 102T249 116Q272 139 296 163T340 213T369 269T373 334Q367 351
356 360T332 376T306 385T280 395Q274 389 266 388T249 387T232 387T218 380Q206 386 197 384T179 378T161 370T140 365Q129 353 117 351T94 349Q82 361 82 377T86 413T89 452T78 489V597Q78 609 83 610T93 611T104 608T109 613Z" />
<glyph unicode="6" glyph-name="six" horiz-adv-x="429" d="M379 609Q361 590 343 585T306 578T269 574T232 559Q183 523 149 479T101 397Q90 372 80 346T69 283Q82 283 93 291T118 299Q124 311 135 318T162 328T196 331T232 332Q256 332 281 322T330 299Q367
274 387 230T395 136Q383 99 369 67T330 22Q280 -15 232 -17T134 5Q103 18 84 38T53 85T34 141T20 202Q20 263 32 313T69 413Q82 425 86 447T101 495Q126 525 153 547T210 586T269 616T330 642Q336 642 344 639T360 632T373 621T379 609ZM330 234Q330 246 322 255T302
272T275 286T249 299Q224 305 203 303T161 293T123 274T86 251Q68 238 65 223T65 193T71 163T69 136Q75 130 80 126T89 118T92 106T86 87Q122 51 160 37T249 22Q273 35 295 57T330 103Q336 115 341 130T347 162T346 197T330 234Z" />
<glyph unicode="7" glyph-name="seven" horiz-adv-x="457" d="M430 663V646Q430 621 432 594T433 540T424 489T397 446V430Q384 417 372 397T347 363Q347 357 345 353T339 344T333 332T330 313Q318 313 308 309T297 280Q272 254 256 228T214 163Q208 144 209 126T214
88T218 51T214 13Q201 1 189 -7T164 -3Q152 9 151 24T152 57T159 92T164 130Q177 193 211 252T297 363Q297 376 299 380T314 396Q314 390 316 390T322 392T327 401T330 413Q336 419 335 425T333 438T333 450T347 463Q359 475 363 490T369 523T372 558T380 596Q374
602 363 603T339 603T315 599T297 596Q272 596 250 598T206 602T162 603T114 596Q108 590 107 579T105 555T104 531T97 513Q97 500 99 490T114 480Q108 474 102 466T87 451T70 442T47 446Q35 459 35 471T41 496T49 521T47 546Q53 558 54 573T57 604T63 635T81 663Q124
663 168 661T255 657T342 656T430 663Z" />
<glyph unicode="8" glyph-name="eight" horiz-adv-x="442" d="M304 647Q329 633 350 611T371 563Q382 512 370 467T320 397Q308 397 296 387T271 363Q321 349 355 317T404 246Q410 215 410 182T400 117T371 58T320 11Q308 11 294 4T253 -4Q241 -10 229 -9T204
-5T179 0T154 -4Q148 8 139 15T121 29T102 42T87 62H52Q59 68 60 74T59 85Q57 90 52 96Q41 121 33 146T37 196Q31 209 35 218T45 236T55 250T52 263Q66 301 99 325T170 363Q158 376 141 388T108 415T81 444T70 479Q70 504 71 528T78 575T98 615T137 647Q174 671
220 671T304 647ZM304 580Q304 593 294 603T271 613Q252 613 233 615T197 617T165 613T137 597Q123 571 121 538T119 479Q119 460 127 447T148 423T176 402T204 380Q241 393 274 417T320 479Q333 505 331 529T304 580ZM354 263Q341 275 326 289T294 316T258 337T220
345Q182 334 149 317T103 263Q91 238 83 203T87 129Q87 117 95 110T112 96T129 83T137 62Q143 56 151 55T167 54T180 53T186 46Q224 46 259 50T320 78Q358 116 362 164T354 263Z" />
<glyph unicode="9" glyph-name="nine" horiz-adv-x="433" d="M384 514Q390 502 395 488T404 459T407 430T400 404Q400 319 375 248T289 117Q277 93 260 77T222 48T178 21T130 -10Q106 -10 92 0T66 23Q78 34 82 44T98 54Q116 48 131 52T162 66T192 85T225 102Q243
126 260 144T293 181T319 218T337 261Q349 272 353 284T369 308Q363 314 362 320T361 332T360 343T353 355Q329 343 305 328T256 300T203 284T146 292Q146 304 136 306T114 308Q90 320 69 341T35 388Q45 388 49 396Q51 400 51 404Q39 404 35 411T31 429T33 450T35
467Q35 479 35 493T39 523T48 552T66 579Q114 614 161 634T257 642Q305 630 339 597T384 514ZM337 530Q325 554 305 567T261 586T212 593T162 594Q132 582 116 563T92 521T83 476T82 435Q82 423 87 409T102 382T122 357T146 340Q170 328 201 320T257 324Q269 324
280 332T302 352T322 378T337 404Q355 416 357 430T355 461T344 494T337 530Z" />
<glyph unicode=":" glyph-name="colon" horiz-adv-x="182" d="M148 469Q163 454 163 437T148 389Q133 374 109 372T69 369Q54 384 42 389T29 409Q14 439 26 463T69 488Q76 503 86 504T108 501T130 486T148 469ZM168 150Q168 121 156 104T128 71Q113 71 102 69T82
66T64 71T49 91Q34 106 24 121T29 150Q29 165 36 173T54 187T79 197T108 210Q115 202 122 198T137 188T152 174T168 150Z" />
<glyph unicode=";" glyph-name="semicolon" horiz-adv-x="180" d="M147 469Q162 454 162 437T147 389Q132 374 108 372T68 369Q53 384 41 389T28 409Q13 439 25 463T68 488Q75 503 85 504T107 501T129 486T147 469ZM144 89Q150 66 148 41T138 -9T121 -60T99 -108Q93
-114 88 -116T77 -121Q72 -123 68 -123Q57 -112 60 -101T72 -78T90 -56T99 -33Q99 -27 101 -19T104 -3T105 14T99 28Q93 22 87 21T76 20T65 20T53 13Q42 19 36 27T27 45T24 66T23 89Q34 100 45 111T68 133Q80 127 91 126T112 122T130 112T144 89Z" />
<glyph unicode="&lt;" glyph-name="less" horiz-adv-x="235" d="M182 394Q165 369 155 361Q142 322 119 313Q113 313 109 295L87 291L89 282H99L109 284Q113 280 114 266Q124 262 133 235L139 229V226Q157 232 146 217Q153 217 181 181L195 159L205 133Q187 115
163 118L136 141Q121 141 117 163Q94 182 77 206Q64 232 57 236Q37 232 30 263Q9 271 3 278V280Q13 289 13 304Q45 318 52 330Q63 330 71 344Q82 354 82 358L90 364Q98 379 111 390L119 413Q122 422 161 449Q185 449 195 427L182 394Z" />
<glyph unicode="=" glyph-name="equal" horiz-adv-x="437" d="M398 149L387 136L374 128H55V184Q69 184 97 186T140 189Q178 189 253 191T366 193H372Q400 181 400 164L398 149ZM85 269Q81 269 55 275V314H31L55 317V325Q99 331 101 331Q108 331 116 327Q125 328
129 331H391V273H115Q110 273 100 271T85 269Z" />
<glyph unicode="&gt;" glyph-name="greater" horiz-adv-x="238" d="M40 436Q50 458 74 458Q114 431 117 422L125 398Q138 387 146 372L154 366Q154 362 165 352Q173 338 184 338Q191 326 224 312Q224 297 234 287V285Q228 278 207 270Q200 239 179 243Q172 239
159 213Q142 189 119 169Q115 147 100 147L72 124Q48 121 30 139L40 165L54 188Q82 224 90 224Q78 239 97 233V236L103 242Q112 269 122 273Q123 287 127 292L137 289H147L149 299L127 303Q123 321 117 321Q94 330 80 369Q70 377 53 403L40 436Z" />
<glyph unicode="?" glyph-name="question" horiz-adv-x="401" d="M369 560Q376 546 376 529T374 495T364 460T350 429Q345 415 333 405T304 385T273 367T246 346T232 318T237 278Q230 271 223 265T209 255T195 251T181 259Q174 273 176 290T186 325T202 360T218
391Q232 398 249 403T282 415T311 433T331 466Q338 487 336 505T325 539T303 569T275 598Q246 612 219 614T162 617Q133 603 117 589T87 560Q80 546 85 541T98 533T115 524T124 504Q117 497 113 487T103 468T90 453T68 447Q61 454 51 455T32 459T17 466T11 485Q11
506 17 524T32 558T51 588T68 617Q103 631 146 640T232 645T311 622T369 560ZM275 146Q275 132 273 116T256 71Q242 57 217 55T162 52Q155 66 148 77T136 98T128 120T124 146Q138 160 161 170T207 181T249 175T275 146Z" />
<glyph unicode="@" glyph-name="at" horiz-adv-x="724" d="M696 386L683 329Q682 324 686 317T690 303Q690 298 687 291L682 265Q680 252 679 243T674 225T669 213Q665 197 665 184Q665 177 664 174Q657 167 655 164Q645 153 645 152Q647 148 647 145Q647 140
642 128L637 115L620 103L600 105L575 95H545L519 103L490 118L474 138L427 185L387 147Q366 135 336 135Q306 135 283 146T240 182Q238 185 233 195T222 211T211 226T200 246L195 258Q194 265 190 271T185 285Q187 291 187 302L185 337Q185 344 193 353T203 369Q209
388 221 409T245 450Q257 459 270 468Q279 474 299 482Q329 493 331 494T341 495Q348 495 356 494T373 492Q389 492 404 487T445 460L450 472L470 487L492 488L512 482L529 460V433L522 407L529 377L517 360L519 335L530 308L529 287L519 267L522 248V218L537 200L547
178L570 180Q592 195 599 206Q603 210 605 213Q611 223 618 236Q619 237 623 244T628 255V322Q630 326 631 329T632 335Q632 342 626 357Q625 362 620 371V415Q619 422 614 424T609 445Q604 449 602 452T587 469L574 482L570 492Q566 500 559 508T547 521T535 529L515
541Q511 546 510 547Q503 555 500 556Q490 560 480 564T457 572T434 577Q428 580 425 582Q420 586 415 587Q400 585 394 587Q384 589 371 591T344 594L325 595Q321 594 319 591T314 587Q311 587 306 588T297 589Q290 589 284 588T259 579Q248 575 238 571L217 564L186
537L175 531Q170 526 168 522T165 514Q149 502 143 491T136 472V462L120 445V435Q120 424 117 413L109 393L106 372L102 352Q100 343 100 342Q100 337 105 328Q106 325 105 321L95 275Q95 272 97 268T102 262Q102 257 100 257T98 252Q102 241 104 236Q109 216 120
196L130 176Q133 172 140 164T149 155Q155 147 161 142Q163 140 167 137Q174 124 180 118T193 107Q196 102 200 98Q211 95 218 94T234 87L258 72Q272 64 276 62T285 60H334Q336 56 340 52H355Q360 54 363 55T376 57T390 59T402 61Q410 61 417 61T438 65Q444 67
447 60L465 67H482L512 60H547L579 67L625 55L644 38L642 3L627 -12L600 -22L565 -20L529 -13L504 -8Q483 -6 474 -5T459 -5Q447 -7 444 -7Q435 -7 430 -6T422 -3Q420 -4 418 -7Q414 -13 409 -13H385Q371 -13 358 -11T322 -3Q303 -5 295 -3Q291 -3 284 2T272 8L247
13Q233 17 216 24T192 34T175 48Q174 50 170 54Q158 62 151 65Q139 72 132 78T120 89Q110 99 102 115L97 128Q93 131 91 132L80 143Q69 157 65 163Q56 173 54 174Q54 197 48 199T40 212Q39 218 39 222Q40 240 40 252V267L32 283Q25 302 25 312Q25 315 27 320T30
327V411Q30 414 36 424Q38 427 42 435Q55 461 65 476Q68 479 73 485Q75 492 75 497T82 513L102 540Q111 542 114 545Q136 570 159 595Q170 603 180 611T200 625Q203 626 212 627T224 630Q238 637 253 643Q260 646 270 649T291 653T312 654Q325 654 327 655T339
657T356 659T366 662T377 664Q389 665 390 665Q390 663 398 655H458Q463 655 472 651Q476 649 492 640Q504 633 513 627Q516 625 522 621T542 614T564 607L574 597Q582 591 588 584Q597 574 606 559Q610 556 613 553Q620 547 629 537Q630 536 640 524Q648 516 651
511T659 497T665 485Q673 471 676 462T684 439T692 417Q692 409 690 409T687 402L691 395Q696 389 696 386ZM432 403Q430 406 425 402T417 398Q401 398 385 410Q366 424 358 426L350 427Q345 428 341 429T331 430L325 423Q316 423 309 420Q306 419 302 416Q285
416 276 409T266 383Q266 377 263 360T260 334Q260 324 260 316T263 302T270 297Q272 294 272 289L271 277Q271 272 275 266T285 253Q297 237 299 235Q305 228 324 225T358 221Q382 221 398 229T419 257Q419 261 419 264T417 273L419 302L425 330L429 352L425 362V390Q429
390 431 396T432 403Z" />
<glyph unicode="A" glyph-name="A" horiz-adv-x="549" d="M328 591Q360 451 390 313T452 35Q459 28 473 26T501 23T526 18T537 5Q537 0 534 -6Q508 -6 478 -12T420 -19Q399 -19 381 -12T349 15Q349 22 359 22T381 21T404 28T414 53Q414 62 411 76Q403 84 402 95T398
117T391 140T370 159Q339 159 307 163T240 168Q222 168 203 166T164 159Q156 151 152 137T143 105T135 69T123 35Q130 27 140 26T161 22T177 15T184 -6H20Q17 -6 15 -5Q11 -3 11 0Q11 6 22 18T46 30Q54 30 63 28T80 26Q90 26 96 32T102 56Q110 133 124 203T156
341T191 475T226 612Q248 634 271 634Q289 634 303 622T328 591ZM308 488Q300 496 296 507T287 529T279 552T267 571Q251 524 239 478T226 385Q210 339 195 293T164 200H246Q257 195 266 193T287 191Q307 191 328 195T370 200Q370 216 368 231T349 262Q341 277
340 292T338 323T337 354T328 385Q312 416 310 444T308 488Z" />
<glyph unicode="B" glyph-name="B" horiz-adv-x="617" d="M409 649Q441 633 469 616T512 566Q543 506 512 443Q512 428 506 416T490 395T470 377T451 361Q466 346 484 330T520 297T552 260T575 217Q582 186 576 159T554 107T517 59T472 12Q456 12 441 6T410 -4T379
-6T348 12Q332 4 320 3T297 1T273 0T245 -10H60Q52 -2 48 3T42 12T40 20T39 32Q47 47 61 47T93 43T129 39T163 53Q155 122 156 191T160 330T160 469T142 608Q134 608 120 602T89 592T53 590T19 608Q26 615 30 622T39 636T47 645T60 649H409ZM472 505Q467 541 451
559T411 586T361 594T305 595T251 595T204 608L183 587Q199 564 201 538T201 482T198 423T204 361L348 382Q364 382 389 384T430 402Q446 417 454 432T467 461T471 486T472 505ZM492 238Q469 276 436 296T363 324T283 330T204 320V53Q242 53 280 48T352 40T417
44T472 73Q487 96 498 119T512 163T512 203T492 238Z" />
<glyph unicode="C" glyph-name="C" horiz-adv-x="531" d="M407 576L427 595Q419 603 421 607T429 615T441 623T447 635Q463 635 475 633T488 616Q480 593 476 567T471 515T469 462T468 414Q468 399 465 394T455 388T442 390T427 393Q412 408 410 423T409 451T412
475T407 494Q392 524 364 552T306 595Q283 603 264 601T228 589T195 565T164 534Q157 511 144 492T117 454T94 415T84 373Q91 358 90 343T86 315T86 291T103 272Q103 264 100 260T94 252T87 244T84 232Q91 217 95 202T106 174T120 149T145 131Q145 116 151 104T167
83T187 65T205 49Q220 34 238 30T275 27T312 35T346 49Q377 80 402 113T427 191Q434 198 438 205T447 219T455 228T468 232Q483 232 495 230T508 211Q508 188 502 169T486 130T466 92T447 49Q357 -41 205 -11Q175 -4 152 17T109 67T75 128T44 191Q36 229 33 270T33
353T49 436T84 515Q84 522 91 533T109 557T134 586T164 616Q187 616 206 622T245 633T283 641T326 635Q357 621 374 606T407 576Z" />
<glyph unicode="D" glyph-name="D" horiz-adv-x="613" d="M183 628Q190 620 194 620T203 620T211 625T223 628Q261 628 296 627T361 621T419 603T469 567Q492 559 504 545T524 514T537 479T550 445Q565 391 568 335T563 226T530 124T469 37Q423 7 370 -3T262 -16T150
-18T40 -24Q32 -16 31 -9T32 4Q34 11 40 17Q40 32 46 37T63 42T83 40T101 37H162Q170 75 168 110T163 179T157 249T162 323V587Q147 595 123 588T76 575T37 573T20 608Q35 623 50 625T81 628H183ZM448 526Q418 542 398 557T346 587Q331 579 313 581T275 587T237
593T203 587V567Q203 514 206 458T210 346T211 238T203 139Q210 124 211 109T213 81T214 56T223 37Q238 44 260 43T308 40T359 40T408 57Q415 72 429 87T456 118T479 149T489 179Q512 194 515 216T515 263T506 314T509 363Q501 386 494 406T479 445T464 483T448
526Z" />
<glyph unicode="E" glyph-name="E" horiz-adv-x="607" d="M540 596Q540 573 546 551T555 508T557 468T540 434Q532 434 528 434T520 436T512 442T499 454V576H197L177 415Q184 407 185 399T187 382T188 360T197 333Q227 318 270 320T358 354Q358 361 355 372T351
394T349 416T358 434Q373 427 381 413T394 384T398 355T399 333Q391 318 392 300T396 263T396 226T378 192Q363 199 358 210T353 235T355 263T358 293H338Q323 293 305 296T268 300T231 301T197 293V30H480Q495 53 500 75T507 118T510 158T520 192Q520 200 523
203T530 209Q534 211 540 212Q555 189 557 163T556 111T546 59T540 11Q532 -4 519 -6T490 -7T461 -4T439 -10H35Q35 -2 32 -1T28 0T26 1T35 11Q35 26 48 28T80 28T120 25T156 30Q164 37 162 45T157 63T151 84T156 111V576Q141 583 123 582T86 578T49 578T15 596Q46
611 75 613T136 616H499Q507 616 511 616T520 614T528 608T540 596Z" />
<glyph unicode="F" glyph-name="F" horiz-adv-x="557" d="M357 589Q378 589 399 591T442 596T485 597T528 589Q542 546 544 501T547 399Q518 370 490 399Q490 406 490 416T488 437T482 458T471 475Q485 475 487 481T488 496T485 515T490 532L243 551H205V323Q219
316 233 315T262 316T290 320T319 323Q333 352 335 378T338 418L357 437L376 418V171Q376 163 370 163T357 164Q348 166 338 171Q331 185 330 196T331 218T335 240T338 266Q295 280 265 282T205 285V38Q226 31 249 37T292 47T325 44T338 0Q324 -7 304 -8T260 -7T212
-3T167 0Q153 0 130 -5T84 -12T42 -8T15 19Q29 33 34 45T53 57Q67 50 81 44T110 34T138 30T167 38V551Q146 558 128 557T93 554T63 554T34 570V589Q91 603 157 603T281 589Q295 589 306 591T326 596T342 597T357 589Z" />
<glyph unicode="G" glyph-name="G" horiz-adv-x="563" d="M411 538Q411 545 411 555T416 575T427 591T450 598Q457 583 455 571T450 548T444 526T450 500Q435 485 435 465T437 427T436 396T411 383Q404 390 403 397T404 412T408 427T411 442Q411 456 405 473T387
506T362 536T334 558Q312 573 288 574T240 569T195 548T159 520Q137 498 119 470T88 408T68 339T61 267Q76 259 78 252T79 235T75 215T81 189Q96 175 110 148T139 92Q139 78 151 66T178 54Q207 24 236 22T294 34Q316 41 337 52T376 77T409 110T430 151Q423 165
422 179T420 206T419 229T411 247Q382 247 353 249T294 267Q294 281 303 283T328 284T360 281T392 287H527Q531 281 534 277Q536 273 536 270T527 267Q520 259 510 258T489 257T468 256T450 247Q450 211 453 181T462 124T474 70T489 14Q481 7 477 1T469 -9T461
-13T450 -4Q442 3 441 13T440 34T439 55T430 73Q416 51 398 36T361 10T320 -9T276 -24Q247 -17 221 -9T174 10T134 36T101 73Q86 102 74 121T61 170Q47 185 40 205T31 248T32 290T43 325Q43 398 71 466T159 578Q181 585 205 594T255 607T305 606T352 578Q359 578
366 572T381 558T396 544T411 538Z" />
<glyph unicode="H" glyph-name="H" horiz-adv-x="624" d="M283 584V565L185 545V329L204 309Q234 316 263 315T319 312T372 312T421 329Q428 336 429 350T430 380T431 414T440 446Q440 453 438 464T433 488T432 515T440 545Q433 552 417 551T386 550T363 556T361
584Q376 591 394 592T432 594T474 595T518 604Q525 604 535 604T555 599T571 588T578 565Q577 559 575 555Q573 551 570 548T558 545Q550 545 540 548T519 552T498 553T480 545Q472 486 476 424T486 297T493 166T480 34Q487 26 494 25T509 24T523 23T538 14Q538
29 550 31T578 34Q585 26 586 19T585 5T581 -10T578 -25H361Q355 -19 351 -13Q347 -8 345 -1T342 14Q357 21 368 22T388 22T405 17T421 14Q435 89 437 149T440 270Q433 277 426 278T411 277T396 273T381 270Q351 277 328 281T283 286T238 288T185 289V14Q199 14
213 16T241 19T264 14T283 -6Q282 -12 280 -16Q278 -20 275 -22T263 -25H66Q59 -25 53 -22T42 -13T38 -1T47 14Q62 29 76 28T103 24T127 20T145 34Q152 93 151 152T146 269T140 387T145 505Q138 512 139 522T143 542T143 558T126 565Q96 550 79 540T47 545V604H185L283
584Z" />
<glyph unicode="I" glyph-name="I" horiz-adv-x="474" d="M438 583Q451 583 455 573Q457 569 457 564Q443 549 429 547T402 547T378 550T360 544Q332 559 313 559T265 544Q272 522 273 498T272 448T268 399T265 352Q272 344 273 340T272 332T268 324T265 313V43Q279
36 296 35T334 36T375 40T419 43H438Q452 27 455 17Q457 11 457 5L438 -14H53L33 5Q32 15 35 24Q37 31 41 37T53 43Q97 43 139 41T226 24Q233 38 232 55T226 91T221 126T226 159Q226 210 224 257T219 352T218 446T226 544H53Q53 551 47 558T36 571T28 579T33 583Q235
611 438 583Z" />
<glyph unicode="J" glyph-name="J" horiz-adv-x="538" d="M509 592Q524 592 524 580T509 552H370L389 333Q396 325 397 318T397 301T392 280T389 253Q389 223 388 188T379 117T355 49T309 -6Q264 -36 220 -38T131 -26Q108 -19 89 -5T55 29T29 69T11 113Q11 136
12 157T18 196T36 223T70 233Q86 248 100 236T131 193Q131 186 128 182T118 174T105 166T91 153Q75 153 73 151T70 134Q70 119 74 101T87 67T112 36T150 14Q180 -1 222 1T309 34Q339 109 341 183T330 333Q337 340 338 344T337 352T333 360T330 373Q330 395 332
417T337 462T338 507T330 552Q320 557 307 557T280 553T253 547T227 544T205 551T190 572Q205 587 220 592T249 597T279 595T309 592Q339 592 365 595T416 599T463 600T509 592Z" />
<glyph unicode="K" glyph-name="K" horiz-adv-x="630" d="M120 611Q135 611 153 613T189 616T226 611T258 591Q265 577 260 575T242 572T212 570T180 553Q180 538 183 520T187 483T188 447T180 414Q187 406 186 393T180 364T174 335T180 314V274Q217 311 244 348T298
423T352 497T417 571Q409 571 399 569T380 567T365 572T358 591Q365 598 376 599T400 601T427 602T457 611H556L576 591Q576 576 574 565T556 553Q548 553 538 556T517 562T495 568T477 571Q454 542 435 516T398 465T360 419T318 374Q318 359 324 344T340 314T360
285T378 255Q385 240 392 222T409 186T430 149T457 117Q457 109 463 102T476 85T490 64T497 37H517Q524 37 531 40T546 44T561 45T576 37Q591 37 601 25T596 -3Q573 -18 548 -19T494 -18T437 -9T378 -3V17Q385 24 392 25T407 27T422 28T437 37L318 235Q318 250
314 264T303 289T284 307T258 314Q244 292 227 269T197 220T178 164T180 97Q187 89 186 79T183 57T183 35T200 17Q229 32 246 30T278 -3L258 -22Q236 -22 221 -20T190 -15T159 -14T120 -22H100Q94 -28 90 -30Q81 -35 81 -22Q73 -22 63 -19T46 -10T36 2T41 17Q46
32 54 35T71 37T90 30T110 25T127 30T140 57L120 97V473Q135 488 135 513T120 553Q112 560 102 556T81 547T59 546T41 571Q41 586 43 598T61 611Q68 611 75 614T90 618T105 619T120 611Z" />
<glyph unicode="L" glyph-name="L" horiz-adv-x="551" d="M309 589Q309 596 312 597T321 596T333 592T347 589Q351 583 354 579Q356 575 356 572T347 569L328 550H212Q212 492 215 431T219 304T220 170T212 28Q248 21 281 23T347 28T413 33T483 28Q490 28 488
34T483 50T477 69T483 86Q475 93 475 97T475 106T480 114T483 125Q490 140 486 157T480 188T485 212T521 222Q528 222 529 216T529 200T524 181T521 164Q528 142 527 121T522 77T516 34T521 -10H77Q70 -18 60 -18T41 -15T26 -5T19 9Q19 31 31 34T60 33T92 25T116
28Q123 28 130 26T144 21T159 20T174 28V492Q174 506 172 521T154 550H38Q31 565 33 573T40 586T52 596T58 608Q87 601 119 600T183 598T248 597T309 589Z" />
<glyph unicode="M" glyph-name="M" horiz-adv-x="611" d="M198 568Q190 553 198 541T218 518T237 496T237 469Q245 462 244 452T240 430T240 409T258 390Q265 375 269 355T277 312T285 269T297 233Q302 227 306 225Q310 223 313 224T316 233Q323 240 327 254T336
284T344 318T355 351Q355 373 361 392T374 427T388 459T394 489Q409 504 412 521T417 555T425 586T454 607H553Q567 607 569 595T572 568Q565 553 555 553T536 558T520 562T513 548V36Q513 28 515 28T522 29Q526 31 532 36Q540 44 547 44T560 43Q566 40 572 36Q587
22 587 17T572 -3Q557 -10 546 -11T523 -10T501 -6T474 -3Q459 -3 448 -8T428 -15T410 -11T394 17Q394 31 396 33T415 36Q430 36 442 34T454 17Q461 39 462 58T464 95T465 133T474 174V430L454 548Q431 511 419 468T397 379T379 285T355 194Q341 179 326 177T297
174Q282 189 277 206T268 243T258 279T237 312Q222 370 198 429T159 548V36Q164 26 171 25T187 26T202 31T215 33T221 24T217 -3V-22Q202 -12 184 -12T145 -16T105 -25T68 -29T39 -18T21 17Q28 24 35 30T50 41T65 44T80 36L100 17Q115 24 116 34T115 56T106 77T100
95V548H120Q105 555 94 554T73 551T56 551T41 568Q33 575 33 582T36 595T46 603T60 607Q75 614 90 613T119 608T148 602T178 607Q185 614 189 612T195 603T197 585T198 568Z" />
<glyph unicode="N" glyph-name="N" horiz-adv-x="592" d="M198 611Q220 581 235 549T264 483T289 418T316 355Q323 340 333 325T353 294T368 258T375 217Q390 187 404 158T434 99Q449 143 449 177T434 257V513Q434 520 437 527T441 542T442 557T434 573Q426 573
416 571T395 568T373 572T355 592Q363 592 366 594T372 601Q374 605 375 611Q397 604 419 606T464 611T508 617T553 611Q553 598 562 594Q566 592 572 592Q565 569 555 566T533 564T512 566T494 552Q494 492 492 421T474 276Q481 246 485 211T491 138T493 65T494
-1Q486 -8 479 -9T464 -11T449 -12T434 -20Q405 40 385 108T336 237Q336 259 324 278T297 318T270 361T257 414Q242 429 234 447T218 486T202 528T178 573H158Q158 506 161 439T165 304T166 165T158 20H237Q245 20 245 17T244 9Q241 5 237 -1Q215 -8 193 -9T149
-11T104 -12T60 -20Q52 -20 48 -20T39 -18T31 -12T20 -1L39 40Q47 47 57 45T79 40T100 34T119 40V355Q111 385 113 414T118 471T124 524T119 573Q104 580 93 576T72 567T55 566T39 592Q39 614 49 617T74 617T106 609T139 611Q139 604 142 603T151 601T163 600T178
592Q178 605 188 609Q192 611 198 611Z" />
<glyph unicode="O" glyph-name="O" horiz-adv-x="537" d="M395 579Q432 550 454 508T490 416T507 312T512 207Q497 178 479 144T436 78T383 23T316 -8Q170 -38 82 110Q82 124 76 136T62 160T48 189T42 227Q35 271 38 317T54 410T89 499T140 579Q155 579 166 585T189
598T211 612T238 618Q283 618 324 613T395 579ZM376 540Q361 555 340 562T294 571T246 570T199 559Q184 544 167 526T136 488T111 447T101 403Q87 373 85 334T82 265Q82 243 91 218T116 168T148 117T180 70Q209 41 250 39T336 50Q373 72 399 107T441 185T465 273T473
363Q458 393 444 432T414 501L376 540Z" />
<glyph unicode="P" glyph-name="P" horiz-adv-x="580" d="M314 622Q336 630 355 628T393 621T431 609T472 603Q517 558 541 500T551 368Q536 338 509 311T452 269Q430 254 399 253T332 254T262 263T197 269Q227 151 197 34Q219 34 240 39T282 48T321 50T354 34Q354
18 342 6T314 -6Q278 1 244 2T177 1T110 -3T39 -6V53Q47 68 61 67T91 61T125 51T157 53Q157 67 155 82T138 112Q138 142 138 177T140 250T146 322T157 387Q150 394 149 401T150 416T154 431T157 446Q157 461 155 475T150 505T149 534T157 564Q147 574 134 574T105
571T76 564T53 563T39 580T39 622Q54 637 72 636T111 630T153 620T197 622H314ZM491 465Q486 499 471 520T433 552T384 568T327 575T270 578T217 584Q217 554 217 516T215 437T209 357T197 288H217Q262 288 305 298T394 309Q423 309 450 323T491 368Q491 382 494
396T498 423T499 447T491 465Z" />
<glyph unicode="Q" glyph-name="Q" horiz-adv-x="576" d="M172 599Q185 599 189 609Q191 613 191 620Q199 612 206 611T221 612T236 617T251 620Q274 612 299 607T351 595T403 575T451 540Q482 480 496 418T511 281Q511 251 504 224T486 171T461 118T431 61Q424
53 417 48T402 38T387 24T371 1Q371 -22 371 -43T376 -84T388 -117T412 -139Q419 -139 426 -142T441 -147T456 -148T471 -139L451 -99H492Q492 -83 494 -69T511 -39Q541 -39 543 -63T532 -119Q532 -134 526 -145T510 -166T490 -183T471 -199Q426 -199 396 -182T352
-119Q344 -112 340 -98T335 -69T333 -41T332 -19Q294 -19 258 -15T189 3T132 40T91 101Q77 131 64 161T51 220Q36 236 32 254T27 293T30 336T33 381Q47 410 62 440T91 501Q99 508 100 515T101 527T102 536T112 540Q127 555 139 570T152 599Q152 607 155 611T162
617Q166 620 172 620V599ZM312 101Q312 116 302 124T279 138T252 148T231 161Q201 146 184 119T152 61Q159 53 166 49T181 40T196 32T212 21Q219 28 226 26T243 21T264 15T291 21Q306 28 311 38T317 60T315 82T312 101ZM431 481Q402 496 384 520T352 560Q329 567
304 570T254 573T209 563T172 540Q164 532 160 523T152 506T144 496T132 501V460Q117 437 103 409T79 348T67 283T72 220Q79 205 83 191T93 164T108 140T132 122Q132 137 138 145T154 161T174 177T191 201Q206 193 220 194T248 198T272 198T291 181Q321 181 332
168T349 138T362 105T392 80Q392 88 398 96T411 111T425 126T431 141Q438 148 437 158T434 178T434 194T451 201Q458 231 461 267T464 340T454 414T431 481Z" />
<glyph unicode="R" glyph-name="R" horiz-adv-x="608" d="M525 531Q540 509 544 484T548 433T539 382T525 334Q510 326 498 316T474 297T445 282T407 275V255Q414 248 424 237T446 213T467 186T486 156V39Q501 31 515 36T543 46T566 53T585 39Q585 9 573 -6T545
-21Q530 -21 503 -19T446 -1Q431 14 429 32T429 70T432 112T426 156Q411 163 403 176T385 203T363 226T328 236Q321 251 307 253T277 255T243 257T210 275V39H309Q323 39 323 27T309 -1Q279 -31 249 -1Q227 -1 205 -4T158 -8T108 -10T53 -1Q45 -1 45 2T45 11T50
24T53 39H170Q163 105 162 171T163 302T167 429T170 551Q160 561 145 562T114 562T82 558T57 559T45 574T53 609H72Q116 609 163 614T259 624T354 626T446 609Q453 594 464 583T486 563T507 546T525 531ZM466 512Q458 527 445 535T415 548T381 558T348 570Q333
563 316 564T279 568T243 568T210 551V295H289Q311 302 339 304T394 311T446 330T486 373Q486 403 484 442T466 512Z" />
<glyph unicode="S" glyph-name="S" horiz-adv-x="537" d="M412 564Q419 572 423 583T432 603T440 620T453 627Q468 619 473 611T478 595T476 580T473 564Q458 533 456 500T453 421H412Q396 436 394 451T391 479T389 504T370 523Q370 531 364 541T347 562T327 578T308
585Q277 600 247 590T186 564Q170 556 162 545T147 521T136 492T123 462Q123 431 141 401T206 338Q237 338 270 337T336 331T399 313T453 277Q483 246 496 203T493 113Q493 81 468 53T412 10Q388 -5 359 -13T298 -21T238 -13T186 10L103 71Q88 63 82 47T72 15T62
-9T41 -11Q26 -11 24 -9T21 10Q36 33 41 62T49 123T52 183T62 236Q77 236 82 226T90 203T93 176T103 154Q134 107 165 77T227 30Q250 30 272 28T316 25T356 30T390 51Q453 112 453 175Q437 205 420 233T370 277Q331 284 287 290T203 309T130 348T82 421Q82 452
86 482T103 539T135 588T186 627Q193 627 204 630T229 634T258 635T288 627Q303 619 321 617T357 611T389 598T412 564Z" />
<glyph unicode="T" glyph-name="T" horiz-adv-x="579" d="M536 615Q543 599 544 574T546 519T547 460T556 407Q556 399 556 388T554 365T548 342T536 324Q528 324 521 327T507 334Q500 338 494 344Q502 375 500 406T494 466T488 522T494 573Q479 580 460 581T419
581T374 576T328 573Q320 558 319 543T318 511T317 480T308 448Q315 417 316 389T318 334T319 279T328 220Q320 197 319 174T318 125T317 72T308 13Q323 13 341 16T379 23T418 30T453 33Q460 25 467 21T481 13T490 4T494 -9L473 -29H120Q112 -22 108 -18T103 -9T101
0T100 13H266Q274 13 275 19T276 36T277 56T287 74H266V573H100Q100 510 98 451T79 344Q79 330 69 326Q65 323 59 324Q43 331 41 342T43 365T53 388T59 407Q51 430 50 456T51 510T56 564T59 615Q90 622 121 623T183 623T246 618T308 615H536Z" />
<glyph unicode="U" glyph-name="U" horiz-adv-x="564" d="M253 611V591Q246 576 235 574T212 574T185 577T155 572V375Q170 360 170 336T155 296Q160 271 161 246T162 195T165 147T174 103T196 66T234 40Q249 32 263 32T292 32T321 37T351 40Q366 47 374 55T388
72T398 92T411 119V355Q411 377 408 405T404 463T402 521T411 572H332Q332 579 329 583T322 591T315 599T312 611Q319 618 326 619T341 619T356 614T372 611H548Q548 603 548 599T546 591T540 583T528 572Q521 572 511 574T489 579T468 580T450 572V119Q436 74
404 35T312 -19Q268 -19 234 -7T155 20Q141 49 128 79T115 139V492Q115 499 118 510T123 532T124 553T115 572Q100 579 86 575T59 565T35 558T17 572Q17 587 20 594T29 606T42 610T56 611H253Z" />
<glyph unicode="V" glyph-name="V" horiz-adv-x="544" d="M215 574Q215 560 206 558T185 555T161 553T141 537Q141 523 152 509T178 481Q178 425 190 375T217 275T248 176T271 70V51Q285 80 290 107T309 163Q316 184 320 207T327 254T335 297T346 331Q353 366
360 395T374 450T388 502T402 555Q388 555 378 553T358 551T342 555T327 574Q327 588 329 599T346 611Q367 604 388 604T432 604T480 608T533 611Q533 604 533 592T529 567T517 546T495 537Q468 564 439 537Q425 466 411 397T383 257Q369 200 355 145T327 33Q313
19 299 7T271 -5Q243 2 231 21T211 65T198 116T178 163Q178 191 172 216T160 263T147 307T141 350Q141 407 129 451T103 537Q103 551 92 553T66 555Q59 548 55 548T48 548T40 552T29 555Q22 562 21 566T22 574T26 582T29 593Q29 607 38 608T59 607T83 598T103 593H141Q148
607 160 613T185 619T206 606T215 574Z" />
<glyph unicode="W" glyph-name="W" horiz-adv-x="564" d="M545 582Q545 564 534 558T512 547T494 536T496 511Q479 439 464 353T449 177Q437 165 434 146T430 106T428 63T421 24T399 -4T354 -15V9Q345 54 339 98T326 184T309 267T281 344Q263 308 257 268T246
188T236 108T211 33Q211 -3 196 -6T162 9Q144 36 134 67T120 131T115 200T114 272Q105 299 100 333T91 406T81 483T67 559Q58 550 50 549T34 552T23 565T19 582Q28 591 44 592T81 591T123 586T162 582Q162 573 159 569T150 562Q145 559 139 559H114Q105 532 108
505T118 451T132 398T139 344Q148 317 149 282T153 209T162 132T186 57Q204 102 211 146T222 233T233 316T258 392Q275 409 293 398T329 367Q329 295 344 224T378 80Q396 125 406 177T423 283T435 389T449 487V559Q432 559 417 562T401 582Q410 591 426 592T461
591T495 586T521 582H545Z" />
<glyph unicode="X" glyph-name="X" horiz-adv-x="607" d="M200 614Q207 606 217 607T236 611T251 611T258 594Q258 587 255 583T246 576T234 568T219 557Q219 564 216 565T210 566T203 567T200 576Q193 561 198 550T212 528T230 506T239 480Q253 466 258 452T267
423T276 394T296 365Q310 379 315 396T324 432T333 467T354 499Q367 513 372 527T391 557Q391 549 394 548T401 549Q405 551 411 557Q396 564 385 565T365 568T349 575T334 594Q341 594 348 600T363 611T377 619T391 614Q398 621 411 620T439 616T467 616T487 633Q494
626 504 625T523 621T538 614T544 594V557Q530 549 519 553T497 563T475 570T448 557Q441 521 426 488T392 423T358 358T334 289Q348 282 353 272T363 251T372 230T391 213Q398 191 406 170T425 129T451 92T487 59Q494 66 504 72T525 81T546 79T563 59Q570 52 571
45T571 31T566 16T563 2Q534 -5 509 -6T459 -5T408 -1T354 2Q346 9 340 16T330 28T326 36T334 40Q349 54 360 59T372 78L391 59Q391 66 388 76T382 97T375 118T372 135Q365 150 358 161T344 183T330 205T315 231Q315 238 312 242T306 250T299 258T296 270Q281 255
279 241T276 213Q262 198 251 181T229 143T207 102T181 59Q188 45 198 45T217 49T232 53T239 40Q253 26 244 14T219 2Q198 2 180 2T143 0T107 -6T67 -17Q52 -17 40 -5T28 21V59Q43 66 54 67T76 66T98 62T124 59Q153 116 181 164T239 270Q253 284 262 298T258 327Q243
349 232 373T210 420T188 464T162 499Q155 506 154 513T150 527T143 542T124 557Q116 557 106 552T86 543T65 540T47 557Q40 564 39 571T40 585T44 599T47 614H162Q162 606 165 606T174 606T186 611T200 614Z" />
<glyph unicode="Y" glyph-name="Y" horiz-adv-x="525" d="M198 587Q212 587 214 576T217 550H161Q168 536 169 523T172 497T179 475T198 457Q191 443 193 432T200 408T211 381T217 345Q224 338 228 331T235 315T243 296T254 271Q268 285 276 304T292 345T307 386T329
420Q329 434 335 448T347 478T360 511T366 550Q359 557 347 556T325 553T309 553T310 569Q324 583 347 583T385 569Q399 569 416 574T450 582T484 585T515 569Q508 548 495 545T467 543T434 545T403 531Q396 517 392 504T385 478T377 456T366 438Q338 382 320 327T273
215Q280 194 279 173T276 129T276 81T292 28L403 47Q403 40 406 36T412 29T419 21T422 10L385 -9H161Q153 -2 147 -1T135 -2Q129 -4 124 -9Q96 19 124 47Q138 47 154 45T186 40T215 39T236 47Q236 75 238 102T240 156T236 206T217 252Q189 322 161 391T105 531Q98
545 88 547T66 548T40 545T12 550Q12 557 15 561T21 568T28 576T31 587Q52 580 73 580T114 580T156 584T198 587Z" />
<glyph unicode="Z" glyph-name="Z" horiz-adv-x="576" d="M491 601V562Q462 518 433 478T377 398T325 317T278 233Q270 218 260 207T239 185T218 163T200 136Q193 122 183 108T162 79T141 50T123 20Q130 13 140 14T161 20T182 25T200 20Q215 20 226 23T248 29T270
36T297 39Q304 32 311 36T326 46T340 53T355 39H375Q404 25 421 34T452 59Q452 74 454 91T459 127T460 162T452 194Q467 201 469 208T469 223T466 238T471 252H529Q529 238 529 227T527 204T521 182T510 156L529 136Q522 129 523 119T527 98T527 77T510 59Q510
44 508 20T491 -19H84Q77 -19 71 -16T60 -7T56 6T65 20Q87 42 99 63T123 107T146 150T181 194Q196 216 210 234T239 271T267 308T297 349Q297 364 309 376T336 388Q350 432 367 463T413 524Q420 538 415 543T401 550T384 553T375 562Q316 548 259 546T142 543Q135
514 136 488T140 439T140 393T123 349Q108 342 100 344T87 354T77 371T65 388Q79 395 81 402T82 417T79 431T84 446Q89 456 87 471T81 503T74 538T74 569T88 592T123 601Q130 594 137 593T152 594T166 598T181 601H278Q285 594 295 593T316 594T337 598T355 601H491Z"
/>
<glyph unicode="[" glyph-name="bracketleft" horiz-adv-x="333" d="M286 716Q291 676 282 659T255 637T215 636T170 643T130 644T103 623V555Q97 503 98 447T103 335T108 223T103 115Q103 98 105 81T122 45Q126 39 130 36Q133 34 135 35T138 45Q166 36 187 41T228
54T265 62T305 45Q305 28 307 15T309 -6T305 -19T286 -24Q272 -33 261 -34T237 -33T211 -27T175 -24Q148 -24 138 -26T118 -30T96 -31T50 -22Q50 -14 45 0Q46 5 45 9T42 16T41 21T49 23V45Q49 54 51 62T55 77T56 88T49 92V694Q49 702 52 710T60 722T71 726T86 716H286ZM47
-21Q49 -21 50 -22Q50 -27 47 -27T43 -27T41 -23T47 -21Z" />
<glyph unicode="\" glyph-name="backslash" horiz-adv-x="447" d="M16 643Q21 653 28 656T42 661T57 663T69 669Q88 659 92 650T107 631Q107 625 105 620T102 610T101 601T107 591Q118 571 134 552T159 513Q159 503 165 494T172 475Q187 470 191 461T197 442T205
423T225 409V383Q229 378 232 370T238 351T247 332T262 319Q262 314 264 311T269 306T274 300T276 293H264Q268 292 268 290T269 286T270 282T276 280Q275 283 277 286Q279 293 288 293V268Q293 268 294 266T296 261T301 256T315 254Q315 244 319 236T327 220T336
201T340 176L366 151Q366 141 372 133T385 118T399 104T406 86Q406 76 413 68T432 60Q441 49 435 35T418 20Q413 15 407 15T393 15T378 18T366 20Q361 35 353 49T336 78T322 107T315 137Q300 152 292 166T278 195T266 224T250 254Q240 274 224 292T198 331Q169
381 132 436T55 539Q55 554 47 564T31 586T17 610T16 643Z" />
<glyph unicode="]" glyph-name="bracketright" horiz-adv-x="334" d="M248 716Q255 725 262 726T274 723T282 710T285 694V90Q279 90 278 86T278 76T282 61T285 43V21Q292 21 293 19T293 14T289 7T289 -2Q283 -19 283 -24Q250 -32 237 -33T215 -33T196 -29T158
-26Q137 -26 123 -29T96 -34T73 -36T47 -26Q33 -26 29 -22T24 -9T26 13T28 43Q49 61 67 60T105 52T145 40T195 43Q195 34 197 33T203 34Q207 37 212 43Q226 62 228 79T231 113Q224 165 225 221T230 333T235 446T231 555V623Q222 641 204 643T163 643T119 636T79
636T52 658T47 716H248ZM287 -23Q285 -23 283 -24Q283 -29 286 -29T291 -29T293 -25T287 -23Z" />
<glyph unicode="^" glyph-name="asciicircum" horiz-adv-x="324" d="M270 562Q245 579 237 589Q199 603 190 626Q190 632 172 635L167 657L158 655V645L161 635Q157 631 143 631Q139 621 112 612L110 610L108 611H93Q96 603 97 601Q90 589 57 564H45L32 562Q19
582 18 597V609Q18 624 40 628Q58 651 82 668Q109 681 109 692Q118 690 140 715Q148 735 156 741H158Q166 731 181 732Q191 697 207 693Q207 682 224 681Q230 662 234 662L248 663Q255 646 279 646L290 625Q299 622 306 588Q299 572 282 566L270 562ZM98 604Q97
603 97 601Q98 601 98 604Z" />
<glyph unicode="_" glyph-name="underscore" horiz-adv-x="580" d="M211 30V46H538Q550 40 554 32T558 14T556 -4T554 -19Q486 -25 424 -26T301 -29T178 -35T48 -52Q35 -39 33 -17T31 30Q31 42 36 46T49 50T65 48T80 46Q92 40 107 41T139 44T174 44T211 30Z" />
<glyph unicode="`" glyph-name="grave" horiz-adv-x="191" d="M92 648L103 658L179 565L183 561Q182 547 169 536T149 518Q129 534 113 552T81 587T47 621T6 650Q10 661 22 674T50 704Q57 711 60 711T66 710T68 705T71 700Q71 692 75 688T84 680T92 669T92 648Z" />
<glyph unicode="a" glyph-name="a" horiz-adv-x="630" d="M479 419Q488 376 489 330T488 239T482 152T479 76Q488 59 500 53T524 45T549 41T570 30H616Q616 22 613 14T604 -1Q599 -9 593 -16Q576 -16 559 -18T525 -21T490 -15T455 8Q455 25 453 42T433 76Q398
41 360 23T282 -4T199 -14T113 -16Q10 53 45 190Q68 224 97 241T160 265T230 273T301 275T371 282T433 305Q433 322 433 342T428 379T414 407T388 419Q284 452 182 419Q188 412 193 404Q198 397 201 389T205 372Q196 372 191 369T180 361T163 354T136 350Q123 350
113 353Q105 355 98 359T91 372Q73 372 70 387T67 419Q93 453 130 471T207 495T289 499T364 487Q399 487 430 470T479 419ZM388 122Q412 122 419 136T425 170T417 213T410 253Q408 240 395 238T364 236Q341 224 314 223T258 222T202 224T152 219T113 195T91 144Q91
110 105 79T136 30Q179 22 214 25T279 42T335 75T388 122Z" />
<glyph unicode="b" glyph-name="b" horiz-adv-x="562" d="M205 660Q205 628 202 593T197 523T196 458T205 401Q221 417 241 433T283 461T330 480T378 488Q426 488 461 459T528 380Q545 299 542 222T507 79Q475 31 440 12T357 -7Q349 1 341 2T325 4T308 5T291 15Q283
7 275 9T259 20T243 39T227 58Q227 66 224 70T216 76Q211 79 205 79Q194 79 191 72T188 53T189 31T187 13T173 5T141 15V165Q149 181 147 204T141 251T135 298T141 337Q133 369 135 405T141 477T147 549T141 617Q125 633 106 633T71 631T44 632T33 660Q25 676 28
678T39 679T57 676T76 682Q92 682 111 684T149 687T182 682T205 660ZM205 122H184L205 101V122ZM442 380Q426 412 394 417T314 423Q297 415 278 403T243 374T216 338T205 294Q189 262 194 237T213 187T244 137T270 79Q286 79 299 76T327 69T358 62T400 58Q408 66
419 74T440 93T457 115T464 144Q472 168 478 199T485 262T476 325T442 380Z" />
<glyph unicode="c" glyph-name="c" horiz-adv-x="532" d="M488 390Q487 363 480 341T445 305Q429 305 417 305T395 310T377 323T360 348Q352 356 351 366T352 387Q355 398 360 411Q336 403 316 405T278 409T244 409T211 390Q203 390 195 383T180 366T164 345T148
326Q140 294 137 260T139 191T162 126T211 71Q227 63 246 62T283 65T316 76T339 92L360 71Q368 87 379 99T400 124T417 148T424 177Q440 194 456 196T488 199Q496 175 494 155T483 116T464 82T445 49Q397 18 350 2T254 -14Q190 3 145 36T83 135Q59 151 50 177T41
233T48 293T63 348Q71 356 74 363T80 376Q82 383 83 390Q107 422 138 442T203 475T272 491T339 496Q355 480 373 478T424 475L488 390ZM254 454Q259 454 264 455T275 458Q263 463 254 454Z" />
<glyph unicode="d" glyph-name="d" horiz-adv-x="589" d="M462 652Q462 593 459 531T454 405T452 279T462 157Q445 149 446 144T453 135T465 126T462 112Q462 104 459 96T454 79T452 63T462 45H574Q574 28 560 15T529 1Q512 1 493 -5T456 -13T428 -9T417 23Q409
31 408 39T406 56T405 73T395 90Q386 65 374 48T346 18T315 -4T281 -22Q272 -22 264 -19T247 -14T231 -12T213 -22Q196 -13 177 -5T138 14T104 38T79 68Q62 110 51 152T37 236T44 321T79 406Q88 414 93 422T104 439T120 455T146 473Q197 490 247 487T349 450Q349
433 363 417T395 383V629Q378 646 361 648T327 649T292 645T258 652Q258 660 255 665T250 674T249 683T258 697H326Q343 697 366 699T411 700T447 687T462 652ZM395 315Q378 332 361 352T324 391T283 426T236 450Q227 442 216 434T191 417T167 401T146 383Q129
383 123 377T114 360T112 338T111 316T103 300T79 293Q79 276 82 259T102 224Q102 207 106 187T116 146T130 105T146 68Q155 59 163 58T177 56T187 55T191 45Q208 37 221 36T247 37T273 42T304 45Q321 62 335 92T349 157Q383 166 391 182T397 219T391 265T395 315Z"
/>
<glyph unicode="e" glyph-name="e" horiz-adv-x="535" d="M496 330Q496 313 498 297T501 267T496 241T474 221Q377 254 281 221Q257 229 237 230T198 229T163 224T130 221Q114 205 115 193T125 168T142 143T152 114Q160 98 171 89T195 74T218 63T238 50Q303 50
351 79T431 157Q448 157 461 144T474 114Q474 98 467 85T447 60T420 35T389 6Q365 -2 331 -8T260 -15T189 -6T130 28Q114 52 95 73T60 117T34 164T23 221Q23 229 26 237T34 256T41 279T45 308Q53 340 68 371T106 428T156 474T216 501Q264 501 308 490T388 456T452
402T496 330ZM410 308Q410 316 407 327T397 348T383 365T367 372Q351 380 332 390T292 407T252 412T216 394Q208 377 194 368T165 348T141 324T130 286Q162 286 198 286T270 289T342 295T410 308Z" />
<glyph unicode="f" glyph-name="f" horiz-adv-x="544" d="M509 606Q509 591 512 579T517 557T518 539T509 522Q501 514 491 510T468 505T445 503T427 502Q411 517 409 533T406 565Q406 572 409 579T414 593T415 602T406 606Q390 613 375 614T343 614T312 609T281
606Q265 591 260 575T252 544T249 513T239 482L260 460Q276 460 294 465T330 473T362 469T385 440Q393 432 393 425T390 411T379 402T364 398Q348 398 333 404T305 414T280 416T260 398V129Q260 121 257 113T252 97T251 81T260 66H406V3Q398 -12 387 -14T362 -13T333
-3T302 3Q270 3 227 1T135 -18Q120 -2 105 -2T76 -4T51 -3T31 25Q31 37 34 48Q36 58 40 68T52 86Q84 71 125 71T198 86Q190 125 190 164T190 242T195 320T198 398Q182 406 163 407T125 406T87 401T52 398Q36 414 26 429T31 460Q39 476 50 478T73 479T96 476T115
482H198Q198 497 193 521T187 571T197 618T239 648Q287 679 333 681T427 669Q458 653 476 637T509 606Z" />
<glyph unicode="g" glyph-name="g" horiz-adv-x="610" d="M571 373Q579 365 580 358T579 345Q576 338 571 332Q571 316 561 304T536 286T508 280T486 289Q478 297 471 305T461 321T457 336T466 352V373Q458 373 447 373T423 370T400 364T381 352Q413 304 423 257T402
163Q386 147 360 134T318 121Q302 105 290 103T263 102T233 105T192 99Q184 99 179 105T170 118T162 126T149 121Q126 113 120 102T115 78T122 55T128 36Q144 28 160 30T191 36T223 42T255 36Q294 44 336 44T415 34T482 4T528 -48Q536 -72 536 -98T528 -150T505
-198T466 -237Q426 -261 380 -273T287 -285T193 -273T107 -237Q83 -230 70 -215T49 -180T36 -137T23 -90Q23 -74 39 -48T87 -5H107Q107 10 95 25T66 57Q66 73 66 88T71 118T83 143T107 163Q115 178 113 187T105 201T93 212T87 225Q79 249 82 272T94 317T118 358T149
394Q173 402 197 409T244 418T291 415T339 394Q355 402 374 412T415 431T460 442T507 437Q515 429 526 421T547 405T564 389T571 373ZM318 332Q301 347 286 349T255 352Q223 352 194 337T149 289Q149 257 151 228T170 185Q187 168 215 155T276 142Q283 150 294
155T318 165T341 180T360 204Q368 220 368 239T363 276T346 309T318 332ZM466 -69Q458 -45 440 -35T400 -21T356 -15T318 -5Q271 -5 237 -7T170 -26Q154 -26 146 -36T131 -61T120 -89T107 -111Q107 -127 114 -142T133 -169T160 -188T192 -195Q223 -195 255 -198T318
-201T381 -196T445 -174Q476 -159 478 -130T466 -69Z" />
<glyph unicode="h" glyph-name="h" horiz-adv-x="663" d="M195 642Q195 609 192 573T187 499T186 424T195 354Q220 370 245 396T300 442T363 472T439 465Q466 465 481 455T505 429T515 391T518 347T520 304T527 266Q519 242 518 214T516 156T515 98T505 44Q516
33 531 32T563 33T595 39T622 42T637 32T637 1Q620 -7 601 -8T560 -10T519 -11T483 -21Q466 -13 447 -14T411 -16T383 -9T371 23Q387 31 400 32T427 33T453 34T483 44Q474 94 473 136T471 218T470 296T460 377Q460 393 447 409T415 443Q382 443 350 428T289 388T236
331T195 266V44Q204 36 222 38T258 40T291 33T305 1Q272 -7 240 -8T174 -10T108 -11T40 -21V23Q48 40 60 42T87 40T118 30T151 23Q143 56 145 85T149 141T149 193T130 245Q138 270 136 301T132 366T132 430T151 486Q143 503 142 520T143 553T148 587T151 621Q140
632 128 633T102 633T77 627T53 624T32 634T18 665Q34 681 54 683T95 684T136 681T173 687L195 642Z" />
<glyph unicode="i" glyph-name="i" horiz-adv-x="505" d="M280 475Q296 451 298 427T298 377T294 323T300 263Q300 215 290 168T280 73Q296 65 315 64T353 65T392 70T428 73H470Q501 40 470 8V-12H89Q72 -12 57 -2T25 8Q17 16 19 24T28 40T40 57T46 73Q46 81 49
82T59 81T73 76T89 73Q105 65 123 64T160 65T192 70T215 73Q207 112 207 155T207 242T212 329T215 412Q183 427 139 417T46 390Q30 398 25 409T22 433T31 456T46 475H280ZM322 644Q330 636 330 628T327 613T316 597T300 581Q292 573 281 569T258 565T235 569T215
581Q207 589 197 594T179 605T168 619T173 644Q181 668 202 683T247 700T292 689T322 644Z" />
<glyph unicode="j" glyph-name="j" horiz-adv-x="388" d="M323 469Q330 446 331 420T332 366T333 308T342 248V-72Q335 -80 328 -84T316 -92T307 -100T303 -113Q288 -121 270 -133T231 -155T188 -165T142 -152Q135 -152 121 -152T90 -147T55 -136T22 -113Q22 -98
20 -80T17 -42T23 -5T44 28Q51 28 61 30T83 33T104 28T123 8Q123 1 123 -9T118 -29T106 -45T83 -52Q83 -67 90 -75T108 -89T134 -100T164 -113Q179 -113 196 -112T231 -106T262 -88T283 -52Q283 8 281 68T276 186T275 300T283 409Q275 417 268 420T256 426Q250
428 244 429Q221 429 199 426T156 422T117 420T83 429Q77 435 73 441Q69 446 66 453T63 469L103 489Q163 489 220 487T323 469ZM342 648Q350 633 351 622T348 602T337 584T323 569Q308 562 294 564T266 574T242 591T223 609V648Q239 665 256 677T303 689Q318 689
330 677T342 648Z" />
<glyph unicode="k" glyph-name="k" horiz-adv-x="632" d="M195 672Q195 615 192 558T187 446T186 339T195 237Q219 253 247 273T303 316T359 363T412 411Q412 419 399 424T374 436T356 451T368 476Q400 476 432 478T495 481T554 476T607 454Q607 432 601 424T584
414T561 416T536 422T513 424T498 411Q481 395 459 379T414 346T373 314T346 281Q371 249 395 220T441 163T483 105T519 42Q535 42 554 48T590 56T617 52T628 21Q628 4 626 2T607 -1Q590 7 574 8T542 7T509 2T477 -1Q468 -1 453 -4T422 -7T391 -2T368 21Q374 27
381 31Q387 35 395 38T412 42Q420 50 427 51T441 53T450 54T454 64Q438 80 422 103T387 153T348 207T303 259Q287 251 274 240T249 216T224 193T195 172Q203 156 201 140T195 108T189 75T195 42Q211 42 227 45T257 50T283 51T303 42Q303 10 292 2T265 -4T230 3T195
-1Q178 -9 162 -10T130 -12T97 -13T65 -23Q30 10 65 42Q73 66 81 66T99 61T121 52T151 64L130 541Q130 549 133 561T138 585T139 608T130 628Q121 628 110 626T86 623T63 628T42 649Q34 665 40 671T56 679T76 683T86 693Q102 685 118 684T148 682T175 681T195 672Z"
/>
<glyph unicode="l" glyph-name="l" horiz-adv-x="559" d="M284 651Q292 659 299 659T312 657T321 646T325 631V94Q317 94 317 91T317 81T322 68T325 52H512Q519 52 526 49T537 39T541 26T532 11Q524 -4 514 -9T491 -15T468 -13T449 -10Q410 -18 375 -18T308 -18T244
-13T181 -10Q158 -10 142 -13T112 -17T86 -19T57 -10Q42 -10 37 -6T31 5T33 25T36 52Q60 68 80 67T122 60T167 49T223 52Q223 44 226 43T233 44Q237 47 243 52Q259 69 261 84T264 114Q256 160 258 210T263 310T269 410T264 507V568Q254 584 233 586T188 586T138
580T93 579T63 599T57 651H284Z" />
<glyph unicode="m" glyph-name="m" horiz-adv-x="638" d="M553 429Q545 382 544 335T542 242T541 153T532 69Q540 61 554 60T580 56T598 49T596 27Q604 12 602 7T593 -1T581 -4T574 -14Q563 -9 547 -9T514 -12T480 -14T453 -10T440 8T448 48H469Q485 64 487 77T488
104T485 134T491 175Q483 199 484 223T487 271T487 318T469 366Q477 374 478 385T477 408T472 431T469 450Q453 434 438 422T408 397T383 373T363 344Q363 336 360 325T353 302T346 279T342 260V69Q350 61 357 57T371 48T381 40T385 27Q392 19 393 15T390 7T379
-1T363 -14Q355 -14 344 -11T318 -6T289 -5T257 -14Q242 2 240 17T237 48Q252 48 265 50T279 69Q279 109 282 149T287 230T288 316T279 408Q279 416 275 423T265 434T252 438T237 429Q197 405 175 371T143 295T132 207T130 112Q138 112 137 99T136 72T142 49T173
48Q189 48 191 35T194 7Q162 -9 128 -11T46 -14L25 7Q25 22 27 35T46 48Q54 48 59 48T68 51T76 57T89 69Q81 109 80 148T81 228T86 307T89 387Q81 395 70 396T49 400T32 407T25 429Q25 445 27 458T46 471Q57 460 70 458T96 455T120 455T137 453T142 439T130 408H151Q168
424 197 450T257 492Q274 492 300 477T342 429V408Q358 416 371 430T397 458T428 482T469 492Q477 484 488 479T511 468T534 454T553 429Z" />
<glyph unicode="n" glyph-name="n" horiz-adv-x="659" d="M217 453Q217 445 214 437T209 420T208 404T217 386Q226 386 234 393T251 408T268 424T285 431Q293 456 309 466T344 481T382 488T419 498Q435 498 451 491T483 473T510 451T531 431Q539 381 540 334T539
241T534 148T531 51H575Q584 60 589 61T598 60T606 54T619 51Q636 51 639 38T642 7Q625 -10 605 -15T564 -21T523 -18T486 -15Q477 -7 459 -8T422 -12T389 -13T375 7Q375 24 377 37T396 51H486Q469 101 469 151T472 249T470 343T441 431Q424 439 404 439T363 434T322
415T285 386Q259 369 243 342T218 281T209 211T217 141Q209 132 208 124T206 108T205 91T196 74Q207 63 222 58T254 51T284 46T308 38T317 19T307 -15H240Q215 -15 187 -18T131 -21T80 -16T40 7Q48 15 46 23T42 40T42 56T61 74Q70 74 82 71T106 66T131 64T151 74V431Q143
439 131 434T104 423T73 415T40 431Q40 439 43 450T53 472T67 490T84 498Q95 487 108 486T134 486T159 492T183 495T203 484T217 453Z" />
<glyph unicode="o" glyph-name="o" horiz-adv-x="555" d="M490 382Q522 302 520 222T469 62Q453 46 424 31T362 -1Q338 -9 318 -16T277 -25T237 -22T192 -1H171Q131 15 106 41T65 100T40 166T22 233Q22 249 28 261T43 286T58 310T65 339Q73 371 91 395T134 437T184
467T234 488Q258 488 282 488T330 483T378 470T426 445L490 382ZM426 318Q410 326 401 337T384 358T367 375T342 382Q318 390 294 396T246 403T198 394T150 360Q134 344 129 328T123 294T125 256T128 211Q128 187 135 164T155 121T182 86T214 62Q262 46 307 49T384
84Q408 108 420 138T437 201T438 263T426 318Z" />
<glyph unicode="p" glyph-name="p" horiz-adv-x="603" d="M230 479Q230 463 232 448T251 416Q314 510 441 479Q457 471 475 463T509 442T535 414T546 373Q562 341 569 300T575 215T561 130T525 57Q493 25 459 10T377 -6Q369 -14 361 -9T343 4T321 17T293 15L230
78Q222 54 221 30T222 -19T227 -73T230 -133Q246 -141 271 -137T319 -133T360 -144T377 -196Q353 -212 330 -211T283 -204T236 -193T188 -196Q172 -188 160 -190T138 -196T120 -202T103 -196Q95 -196 84 -196T61 -193T38 -187T19 -175Q27 -159 38 -148T61 -130T84
-124T103 -133H167V395Q151 403 129 402T88 400T54 406T40 437Q40 445 40 456T43 476T49 493T61 500Q85 500 105 497T145 490T185 483T230 479ZM399 416Q391 408 383 409T367 413T351 413T335 395Q319 395 310 385T293 360T276 332T251 310Q219 278 251 247Q235
247 233 234T230 205Q254 189 267 167T293 123T318 83T356 57Q372 65 387 66T417 70T442 77T462 99Q478 107 483 115T491 133T494 155T504 184Q504 192 507 203T512 228T513 257T504 289Q504 305 494 314T473 331T451 348T441 373L399 416Z" />
<glyph unicode="q" glyph-name="q" horiz-adv-x="604" d="M457 461V-97Q449 -105 445 -117T443 -141T453 -166T479 -186H569Q577 -186 578 -189T575 -197T563 -204T546 -208Q513 -217 477 -224T405 -233T337 -231T279 -208Q284 -191 297 -188T327 -185T360 -188T386
-187T399 -168T390 -119Q398 -94 399 -69T401 -19T402 32T412 82Q396 65 380 49T347 20T313 0T279 -8Q145 -41 78 60Q70 76 65 93T56 126T47 159T33 193Q25 226 28 259T41 324T67 385T100 439Q117 430 127 439T147 461T172 483T212 483Q245 500 278 489T346 461Q346
444 353 435T368 419T383 408T390 394Q398 402 397 417T396 446T403 472T435 483Q441 483 446 480Q450 478 453 474T457 461ZM324 394Q307 402 294 406T268 413T242 415T212 416Q178 399 148 369T100 305Q67 137 167 37Q192 37 213 37T254 42T290 56T324 82Q332
107 350 128T382 171T402 213T390 260Q398 285 389 303T366 335T338 363T324 394Z" />
<glyph unicode="r" glyph-name="r" horiz-adv-x="579" d="M260 391Q285 415 310 438T364 475T426 492T501 479Q509 479 517 472T533 455T550 433T566 413V325Q549 309 534 307T501 304Q484 320 471 339T457 391Q457 399 466 404T484 413T494 422T479 435Q462 443
446 440T414 427T381 401T348 369Q340 352 325 339T293 312T261 280T238 238Q272 205 274 172T260 107Q260 90 263 77T283 63Q299 55 315 56T345 60T371 60T392 41Q392 33 395 28T403 19T410 11T414 -2Q397 -10 381 -11T348 -13T315 -14T283 -24Q266 -24 250 -18T217
-8T184 -6T151 -24Q151 -16 148 -12T140 -5Q135 -2 129 -2Q113 -19 97 -21T63 -24Q55 -16 48 -8T36 11T33 33T42 63H195V413Q184 424 172 425T146 423T119 416T92 410T66 413T42 435Q42 451 55 465T86 479Q118 479 151 481T217 500Q233 492 238 477T246 446T250
414T260 391Z" />
<glyph unicode="s" glyph-name="s" horiz-adv-x="556" d="M321 473Q337 481 353 473T385 459T418 457T451 494Q458 494 462 491T471 484T480 477T493 473Q493 457 496 438T501 401T502 367T493 343Q477 335 468 338T453 349T442 368T429 387Q421 395 413 396T397
397T380 398T364 408Q340 416 310 423T247 430T184 421T129 387Q129 379 126 375T121 366T120 357T129 343L172 301Q220 293 267 291T359 280T443 253T515 194Q523 178 523 162T520 130T509 98T493 66Q485 42 467 29T426 9T382 2T344 1Q312 -7 281 -10T221 -9T169
7T129 44Q113 44 101 32T76 7T51 -10T22 1Q22 25 31 46T49 87T58 128T44 173Q44 181 41 188T36 202T35 212T44 216Q51 224 59 224T75 221T91 210T107 194Q107 178 108 159T115 122T134 89T172 66Q196 50 230 45T300 44T370 59T429 87Q446 104 448 133T451 194Q431
218 403 229T343 245T276 250T210 253T150 261T101 284T71 330T64 408Q73 416 81 427T99 449T121 466T150 473Q158 481 169 482T193 483T216 484T236 494Q244 478 255 478T279 483T302 488T321 473Z" />
<glyph unicode="t" glyph-name="t" horiz-adv-x="505" d="M232 685Q232 660 229 638T221 595T214 553T210 506L232 484Q265 475 298 480T360 489T413 490T455 461Q455 444 441 431T410 417Q393 425 370 426T321 425T272 420T232 417Q224 383 223 350T221 283T220
216T210 150Q218 133 220 117T224 88T232 68T255 60Q263 43 271 41T287 41T303 44T321 38Q346 46 361 68T390 113T424 154T477 172Q477 165 480 158Q482 152 486 144T499 127Q474 110 456 84T418 35T377 -1T321 -7Q296 -7 272 -3T227 10T190 30T165 60Q165 77 159
90T146 113T138 132T143 150Q151 183 152 219T154 291T155 359T165 417Q148 417 132 420T99 425T65 426T31 417Q14 417 12 430T9 461Q26 478 43 483T78 489T118 487T165 484Q174 509 169 537T160 595T159 653T188 707Q196 707 201 704T210 696T219 689T232 685Z"
/>
<glyph unicode="u" glyph-name="u" horiz-adv-x="640" d="M196 455V97Q196 80 203 71T221 58T243 53T263 52Q305 52 335 67T389 108T430 165T465 231V410Q448 427 435 432T409 438T383 435T353 432V477Q370 486 390 487T431 488T472 489T509 500Q518 483 519 463T520
421T521 380T532 343Q515 292 512 231T509 119Q509 111 506 103T501 86T500 69T509 52Q526 44 542 49T573 58T600 59T621 30Q621 13 608 -1T577 -15Q568 -15 553 -18T518 -21T479 -16T442 7V74Q417 49 388 29T328 -4T263 -20T196 -15Q179 -7 170 5T154 29T143 54T129
74V365Q129 374 132 382T137 399T138 415T129 432Q112 441 96 436T65 427T38 426T17 455Q34 480 54 487T95 494T136 493T174 500L196 455Z" />
<glyph unicode="v" glyph-name="v" horiz-adv-x="605" d="M236 508Q253 491 255 475T258 441Q225 474 192 441Q192 416 202 391T225 339T247 282T258 219Q266 202 271 186T280 153T289 119T302 86Q319 111 328 139T344 197T356 254T370 308Q378 325 383 338T392
364T401 390T414 420V441Q397 441 381 443T347 463Q339 472 342 480T353 494T372 504T392 508H570Q570 500 573 495T580 486T587 477T591 463Q574 455 558 453T528 449T501 442T480 420Q472 378 460 340T436 264T412 188T392 108Q384 91 379 75T370 45T361 18T347
-3Q330 -3 314 -3T283 2T256 16T236 42Q244 58 242 71T233 97T221 122T214 152Q197 220 170 286T125 420Q125 428 122 432T113 438Q108 441 102 441Q94 433 86 432T70 433T53 438T36 441Q28 449 24 454T17 463T15 472T14 486Q31 503 47 505T81 508H236Z" />
<glyph unicode="w" glyph-name="w" horiz-adv-x="651" d="M193 459Q193 451 181 443T158 424T147 401T171 372Q163 355 165 339T174 304T186 265T193 219Q201 202 200 186T198 156T205 129T237 109Q245 109 246 113T245 123T240 137T237 153Q253 186 257 224T267
295T289 350T346 372Q352 365 357 358Q361 352 364 344T368 328Q376 304 381 280T393 230T408 181T434 131V109Q442 117 447 129T456 153T464 177T477 197Q469 230 471 259T480 314T492 366T499 416Q482 432 469 448T456 482Q464 490 479 491T510 492T542 493T565
503Q581 519 597 509T631 482Q631 465 628 451T608 437Q592 437 579 424T565 394Q565 344 552 298T522 219Q530 194 528 173T519 132T506 90T499 44Q499 35 499 30T496 21T490 13T477 0H412Q387 8 384 20T382 46T384 77T368 109Q360 125 358 145T354 183T347 217T325
240Q317 232 312 220T303 194T294 164T280 131Q280 123 283 118T288 109T290 100T280 87Q280 79 283 65T286 36T281 11T259 0Q242 -17 215 -17T171 0Q163 41 158 82T149 164T140 246T127 328Q116 333 112 343T105 365T100 388T92 407T74 418T40 416Q32 432 31 444T32
467T37 486T40 503Q65 486 89 486T133 489T169 488T193 459Z" />
<glyph unicode="x" glyph-name="x" horiz-adv-x="656" d="M316 461H224Q241 426 258 407T293 370Q293 352 307 335T340 301Q374 335 405 369T453 438Q445 447 437 448T420 449T403 450T385 461Q385 469 388 477T397 492Q402 500 409 507L431 483H615Q621 483 626
480Q630 478 633 474T637 461Q631 449 621 446T597 443T569 443T541 440T517 426T500 392Q491 384 479 368T451 335T419 302T385 277Q368 268 369 259T380 240T399 216T409 185Q426 173 440 156T467 119T494 82T525 53T564 39T615 48Q632 48 634 34T637 1Q629 -7
617 -8T589 -7T556 -2T522 1Q514 1 502 1T477 -2T452 -8T431 -21Q423 -21 418 -17T409 -7T399 7T385 25Q385 42 395 48T419 56T442 60T453 70Q436 79 427 91T409 119T390 151T362 185H340Q331 177 315 165T282 137T248 104T224 70Q241 70 247 63T258 45T268 22T293
1Q284 1 279 -2T270 -7T260 -8T246 1Q246 10 242 11T232 10T218 5T202 1H109Q92 -7 79 -8T55 -5T35 8T18 25Q18 34 21 39T29 48T36 57T40 70Q75 53 95 51T133 48Q150 82 174 109T221 162T264 215T293 277Q284 294 269 311T236 346T203 380T178 414Q161 432 147
438T118 444T85 441T40 438Q40 447 37 455T32 469T31 479T40 483Q75 483 109 489T178 497T247 493T316 461Z" />
<glyph unicode="y" glyph-name="y" horiz-adv-x="630" d="M602 432Q610 424 611 416T610 399T605 383T602 367Q586 367 574 370T549 377T524 384T495 388Q487 372 482 350T473 303T465 256T452 217Q436 168 417 123T382 31T355 -65T344 -171Q336 -188 325 -197T301
-215T278 -232T258 -257Q241 -249 222 -250T183 -254T143 -254T107 -235Q90 -220 78 -201T65 -149Q65 -141 62 -130T59 -104T64 -74T85 -42Q93 -50 101 -51T118 -53T134 -54T151 -64Q157 -70 161 -77Q165 -83 168 -90T172 -106Q164 -106 160 -115T151 -135T143
-151T130 -150L151 -171Q183 -188 212 -185T258 -149Q274 -101 290 -64T322 22Q322 38 315 51T298 76T277 101T258 131Q241 179 225 214T194 280Q194 313 178 342T129 388Q121 388 107 383T78 375T54 379T43 410Q35 418 34 426T37 440T49 450T65 454H279Q312 421
279 388H214V367Q238 334 252 302T279 238T305 173T344 109Q352 109 356 116T363 133T365 154T366 173Q358 181 363 189T376 206T390 222T387 239Q404 270 417 302T431 367Q414 375 399 380T374 393T361 415T366 454H539Q570 454 586 452T602 432Z" />
<glyph unicode="z" glyph-name="z" horiz-adv-x="603" d="M349 490Q366 499 387 500T429 499T472 494T510 490Q519 473 513 460T496 436T475 416T464 398Q377 311 294 225T142 52V29Q185 29 220 32T288 37T352 39T419 29Q447 29 460 39T478 66T482 104T481 145T487
184T510 214Q527 214 542 199T557 167Q548 150 549 126T551 75T544 25T510 -17H119Q110 -17 98 -14T72 -6T47 2T26 6Q26 23 33 33T49 49T65 61T72 76Q107 93 138 124T187 190L419 421V444H395Q360 444 329 447T268 450T207 444T142 421H119Q119 404 122 384T125
344T119 308T95 283Q86 292 81 293T72 294T63 295T49 306Q60 323 63 343T67 384T67 424T70 457T85 481T119 490H349Z" />
<glyph unicode="{" glyph-name="braceleft" horiz-adv-x="294" d="M280 -94Q280 -111 257 -117Q244 -120 215 -120Q161 -120 126 -101Q83 -78 83 -33V188Q83 226 66 250Q48 274 10 281Q49 294 66 314Q83 334 83 375V598Q83 636 118 661Q152 686 212 686Q246 686
263 682Q280 677 280 658Q280 638 225 629Q170 620 170 594V373Q170 346 153 319Q136 291 110 281Q135 268 153 243Q170 218 170 189V-31Q170 -57 225 -67Q280 -77 280 -94Z" />
<glyph unicode="|" glyph-name="bar" horiz-adv-x="141" d="M58 745Q68 751 75 750T90 746T103 740T117 739Q122 730 124 723T126 709T127 698T129 686Q123 677 114 672T107 653Q105 630 108 605T109 559Q104 551 104 540T100 520Q109 508 108 498T104 478T100
458T109 436Q104 428 103 426T95 414Q96 408 94 399T90 379T87 359T92 340Q87 331 90 325T90 310L79 317Q82 314 82 312T80 308T79 304T83 299Q85 302 88 304Q94 308 100 304L87 283Q91 280 91 278T90 273T91 266T102 257Q97 248 96 239T94 221T91 200T81 177L90
142Q84 133 85 124T89 104T93 84T89 66Q84 58 86 47T97 30Q98 23 95 17T86 7T74 2T64 4Q58 2 52 5T40 14T29 24T20 32Q24 47 24 64T25 97T28 130T39 158Q34 178 35 195T39 227T44 258T47 291Q49 313 46 337T45 384Q47 442 45 508T35 637Q43 649 42 662T40 689T40
717T58 745Z" />
<glyph unicode="}" glyph-name="braceright" horiz-adv-x="294" d="M284 281Q211 267 211 188V-33Q211 -77 168 -100Q131 -120 79 -120Q47 -120 38 -118Q14 -113 14 -94Q14 -78 69 -68Q124 -58 124 -31V189Q124 219 140 243Q156 267 184 281Q159 291 142 319Q124
346 124 373V594Q124 620 69 629Q14 638 14 658Q14 676 32 681Q50 686 82 686Q158 686 191 647Q211 624 211 598V375Q211 336 229 315Q246 293 284 281Z" />
<glyph unicode="~" glyph-name="asciitilde" horiz-adv-x="378" d="M347 326Q347 281 308 258Q280 242 248 242Q229 242 175 260T101 278Q82 278 69 268L47 246Q32 250 32 265Q32 303 60 328Q87 352 127 352Q139 352 198 333Q256 313 285 313Q299 313 311 322Q323
333 336 344Q340 344 343 340Q347 334 347 326Z" />
</font>
</defs>
</svg>
